<svg width="897" height="579" viewBox="0 0 897 579" fill="none" xmlns="http://www.w3.org/2000/svg">
<path d="M581.734 47.1798L597.204 86.7669L587.595 86.7263L579.88 62.3921L581.734 47.1798Z" fill="#E0E0E0"/>
<path d="M528.911 10.6108L523.592 86.4557L578.5 87.5925L584.671 10.6108H528.911Z" fill="#EBEBEB"/>
<path d="M534.406 16.7282L529.967 79.8375L570.785 81.7593L576.497 16.3492L534.406 16.7282Z" fill="#FAFAFA"/>
<path d="M543.352 25.6472L540.05 70.0119H562.557L566.536 25.6472H543.352Z" fill="#E0E0E0"/>
<path d="M474.761 86.9294V48.9529H502.56V86.9024L474.761 86.9294Z" fill="#EBEBEB"/>
<path d="M490.569 48.9528C490.569 48.9528 497.268 -0.0676003 495.387 6.99973e-05C493.506 0.0677403 488.796 44.6625 488.796 44.6625C488.796 44.6625 488.579 7.74155 486.834 7.93103C485.088 8.12051 486.834 47.058 486.834 47.058C486.834 47.058 483.802 15.4695 482.178 16.2274C480.554 16.9853 482.868 48.9528 482.868 48.9528H490.569Z" fill="#E0E0E0"/>
<path d="M485.507 48.9528C485.507 48.9528 487.835 24.5238 488.58 26.1885C489.324 27.8532 488.58 40.7376 488.58 40.7376C488.58 40.7376 495.008 9.16264 496.7 10.2454C498.392 11.3281 490.109 44.5136 490.109 44.5136C490.109 44.5136 496.389 25.5659 497.769 27.5554C499.15 29.5449 492.64 47.3287 492.64 47.3287C492.64 47.3287 499.407 34.7555 499.84 36.5014C500.273 38.2473 496.619 49.0069 496.619 49.0069L485.507 48.9528Z" fill="#EBEBEB"/>
<path d="M481.542 49.1017C481.542 49.1017 466.654 19.9223 468.522 20.8291C470.39 21.7358 479.864 40.5752 479.864 40.5752C479.864 40.5752 473.57 22.3584 474.951 21.8306C476.331 21.3027 483.233 42.267 483.233 42.267L484.776 49.1017H481.542Z" fill="#F5F5F5"/>
<path d="M487.632 49.0205L488.322 86.9835H475.113L474.856 48.8987L487.632 49.0205Z" fill="#E0E0E0"/>
<path d="M474.788 52.3093L487.591 52.5258L502.56 52.3093L503.034 48.6821H474.423L474.788 52.3093Z" fill="#E0E0E0"/>
<path d="M641.271 85.8737H446.61V95.9024H641.271V85.8737Z" fill="#E0E0E0"/>
<path d="M141.512 254.143L144.314 570.812H18.8799V258.46L141.512 254.143Z" fill="#F5F5F5"/>
<path d="M73.9364 256.525L75.0462 570.812H18.8799V258.46L73.9364 256.525Z" fill="#E0E0E0"/>
<path d="M137.574 258.054V302.432H78.1592V260.152L137.574 258.054Z" fill="#E0E0E0"/>
<path d="M117.083 270.262V276.812H98.9069V269.666L117.083 270.262Z" fill="#F5F5F5"/>
<path d="M117.083 282.334H98.3113V285.014H117.083V282.334Z" fill="#F5F5F5"/>
<path d="M137.574 413.587V457.979H78.1592V415.685L137.574 413.587Z" fill="#E0E0E0"/>
<path d="M117.083 425.809V432.359H98.9069V425.213L117.083 425.809Z" fill="#F5F5F5"/>
<path d="M117.083 437.867H98.3113V440.547H117.083V437.867Z" fill="#F5F5F5"/>
<path d="M137.574 308.089V352.481H78.1592V310.187L137.574 308.089Z" fill="#E0E0E0"/>
<path d="M117.083 320.297V326.861H98.9069V319.702L117.083 320.297Z" fill="#F5F5F5"/>
<path d="M117.083 332.369H98.3113V335.049H117.083V332.369Z" fill="#F5F5F5"/>
<path d="M137.574 463.623V508.001H78.1592V465.72L137.574 463.623Z" fill="#E0E0E0"/>
<path d="M117.083 475.83V482.381H98.9069V475.235L117.083 475.83Z" fill="#F5F5F5"/>
<path d="M117.083 487.903H98.3113V490.583H117.083V487.903Z" fill="#F5F5F5"/>
<path d="M138.21 513.645V558.036H78.7953V515.743L138.21 513.645Z" fill="#E0E0E0"/>
<path d="M117.719 525.852V532.416H99.5428V525.257L117.719 525.852Z" fill="#F5F5F5"/>
<path d="M117.719 537.925H98.9474V540.604H117.719V537.925Z" fill="#F5F5F5"/>
<path d="M138.345 361.238H78.9305V405.629H138.345V361.238Z" fill="#E0E0E0"/>
<path d="M117.462 381.241V387.399H100.369V380.686L117.462 381.241Z" fill="#F5F5F5"/>
<path d="M117.462 392.583H99.8136V395.1H117.462V392.583Z" fill="#F5F5F5"/>
<path d="M507.716 532.173V570.867H564.302H626.708V532.173H507.716Z" fill="#F5F5F5"/>
<path d="M502.722 521.359V532.173H630.863V521.359H564.302H502.722Z" fill="#E0E0E0"/>
<path d="M566.793 570.867H626.708V532.173H630.863V521.359H564.302V531.171L566.793 570.867Z" fill="#E0E0E0"/>
<path d="M548.494 538.412H524.363V544.232H548.494V538.412Z" fill="#E0E0E0"/>
<path d="M552.23 551.513H521.25V563.815H552.23V551.513Z" fill="white"/>
<path d="M661.45 482.665V521.359H718.022H780.428V482.665H661.45Z" fill="#F5F5F5"/>
<path d="M656.456 471.852V482.665H784.583V471.852H718.023H656.456Z" fill="#E0E0E0"/>
<path d="M720.526 521.359H780.428V482.665H784.583V471.852H718.022V481.664L720.526 521.359Z" fill="#E0E0E0"/>
<path d="M702.214 488.904H678.083V494.724H702.214V488.904Z" fill="#E0E0E0"/>
<path d="M705.964 502.005H674.984V514.308H705.964V502.005Z" fill="white"/>
<path d="M655.739 532.173V570.867H712.324H774.73V532.173H655.739Z" fill="#F5F5F5"/>
<path d="M650.758 521.359V532.173H778.885V521.359H712.324H650.758Z" fill="#E0E0E0"/>
<path d="M714.828 570.867H774.73V532.173H778.885V521.359H712.324V531.171L714.828 570.867Z" fill="#E0E0E0"/>
<path d="M696.517 538.412H672.385V544.232H696.517V538.412Z" fill="#E0E0E0"/>
<path d="M700.266 551.513H669.286V563.815H700.266V551.513Z" fill="white"/>
<path d="M773.052 253.98L770.25 570.636H895.67V258.298L773.052 253.98Z" fill="#F5F5F5"/>
<path d="M840.627 256.362L839.517 570.636H895.67V258.297L840.627 256.362Z" fill="#E0E0E0"/>
<path d="M776.99 257.891V302.27H836.405V259.989L776.99 257.891Z" fill="#E0E0E0"/>
<path d="M797.481 270.099V276.65H815.657V269.504L797.481 270.099Z" fill="#F5F5F5"/>
<path d="M816.252 282.172H797.481V284.851H816.252V282.172Z" fill="#F5F5F5"/>
<path d="M776.99 413.425V457.816H836.405V415.523L776.99 413.425Z" fill="#E0E0E0"/>
<path d="M797.481 425.646V432.197H815.657V425.051L797.481 425.646Z" fill="#F5F5F5"/>
<path d="M816.252 437.705H797.481V440.385H816.252V437.705Z" fill="#F5F5F5"/>
<path d="M776.99 307.927V352.319H836.405V310.025L776.99 307.927Z" fill="#E0E0E0"/>
<path d="M797.481 320.135V326.699H815.657V319.539L797.481 320.135Z" fill="#F5F5F5"/>
<path d="M816.252 332.207H797.481V334.887H816.252V332.207Z" fill="#F5F5F5"/>
<path d="M776.99 463.46V507.838H836.405V465.558L776.99 463.46Z" fill="#E0E0E0"/>
<path d="M797.481 475.668V482.219H815.657V475.073L797.481 475.668Z" fill="#F5F5F5"/>
<path d="M816.252 487.74H797.481V490.42H816.252V487.74Z" fill="#F5F5F5"/>
<path d="M776.354 513.482V557.874H835.769V515.58L776.354 513.482Z" fill="#E0E0E0"/>
<path d="M796.831 525.69V532.254H815.021V525.094L796.831 525.69Z" fill="#F5F5F5"/>
<path d="M815.603 537.762H796.831V540.442H815.603V537.762Z" fill="#F5F5F5"/>
<path d="M835.633 361.075H776.219V405.467H835.633V361.075Z" fill="#E0E0E0"/>
<path d="M797.102 381.078V387.236H814.195V380.51L797.102 381.078Z" fill="#F5F5F5"/>
<path d="M814.75 392.42H797.102V394.938H814.75V392.42Z" fill="#F5F5F5"/>
<path d="M896.523 570.826C896.523 571.016 695.813 571.178 448.289 571.178C200.764 571.178 0 571.016 0 570.826C0 570.637 200.669 570.488 448.289 570.488C695.908 570.488 896.523 570.623 896.523 570.826Z" fill="#263238"/>
<path d="M267 206.963L276.555 369.899C276.717 372.695 277.94 375.324 279.975 377.248C282.01 379.172 284.703 380.247 287.504 380.253L580.787 381.146C582.231 381.151 583.662 380.872 584.999 380.324C586.335 379.776 587.55 378.969 588.574 377.951C589.599 376.933 590.413 375.723 590.969 374.39C591.525 373.057 591.814 371.628 591.817 370.184L592.21 243.315C592.213 241.865 591.93 240.428 591.376 239.087C590.822 237.746 590.009 236.528 588.982 235.503C587.956 234.478 586.737 233.666 585.395 233.113C584.054 232.561 582.617 232.28 581.166 232.285L400.798 232.894C399.354 232.899 397.924 232.62 396.588 232.072C395.253 231.524 394.039 230.718 393.015 229.7L361.765 198.734C359.711 196.701 356.941 195.554 354.051 195.54L278.017 195.31C276.515 195.307 275.028 195.612 273.648 196.205C272.269 196.798 271.025 197.667 269.993 198.758C268.961 199.85 268.163 201.14 267.649 202.551C267.134 203.962 266.913 205.463 267 206.963Z" fill="#0103AB"/>
<path opacity="0.3" d="M267 206.963L276.555 369.899C276.717 372.695 277.94 375.324 279.975 377.248C282.01 379.172 284.703 380.247 287.504 380.253L580.787 381.146C582.231 381.151 583.662 380.872 584.999 380.324C586.335 379.776 587.55 378.969 588.574 377.951C589.599 376.933 590.413 375.723 590.969 374.39C591.525 373.057 591.814 371.628 591.817 370.184L592.21 243.315C592.213 241.865 591.93 240.428 591.376 239.087C590.822 237.746 590.009 236.528 588.982 235.503C587.956 234.478 586.737 233.666 585.395 233.113C584.054 232.561 582.617 232.28 581.166 232.285L400.798 232.894C399.354 232.899 397.924 232.62 396.588 232.072C395.253 231.524 394.039 230.718 393.015 229.7L361.765 198.734C359.711 196.701 356.941 195.554 354.051 195.54L278.017 195.31C276.515 195.307 275.028 195.612 273.648 196.205C272.269 196.798 271.025 197.667 269.993 198.758C268.961 199.85 268.163 201.14 267.649 202.551C267.134 203.962 266.913 205.463 267 206.963Z" fill="black"/>
<path d="M366.779 134.071L270.338 260.668L371.549 337.77L467.99 211.173L366.779 134.071Z" fill="white"/>
<path d="M366.773 134.055L366.326 134.677L364.973 136.45C363.782 138.034 362.036 140.335 359.776 143.353L340.111 169.311L270.586 260.842L270.519 260.409L371.753 337.472L371.253 337.539L467.737 210.982L467.805 211.388L394.464 155.33L374 139.644L368.586 135.503L366.773 134.055L368.613 135.408L374.027 139.468L394.491 154.992L468.17 210.915L468.4 211.091L468.224 211.334L371.835 337.972L371.618 338.257L371.334 338.04L270.153 260.896L269.91 260.707L270.099 260.449L340.002 168.946L359.762 143.136L364.986 136.369L366.34 134.637L366.773 134.055Z" fill="#263238"/>
<path d="M369.694 143.448L280.028 261.153L368.502 328.553L458.169 210.848L369.694 143.448Z" fill="#263238"/>
<path d="M368.505 329.933L344.821 246.929L398.632 247.673L393.394 216.383L458.168 212.228L368.505 329.933Z" fill="#455A64"/>
<path d="M360.247 224.922C366.624 224.052 371.088 218.177 370.218 211.801C369.348 205.424 363.473 200.96 357.096 201.83C350.72 202.7 346.256 208.575 347.126 214.951C347.996 221.328 353.871 225.792 360.247 224.922Z" fill="#455A64"/>
<path d="M388.206 132.684L380.914 309.626L602.238 318.748L609.53 141.805L388.206 132.684Z" fill="white"/>
<path d="M609.479 141.769H608.423L605.338 141.661L593.333 141.201L548.048 139.428L388.143 132.999L388.468 132.701C386.316 185.362 383.839 245.738 381.227 309.632L380.889 309.267L602.265 318.416L601.968 318.7C604.228 265.376 606.096 221.174 607.381 190.302C608.058 174.846 608.586 162.72 608.938 154.464C609.127 150.336 609.262 147.169 609.357 144.99C609.452 142.811 609.52 141.742 609.52 141.742C609.52 141.742 609.52 142.811 609.425 144.936C609.33 147.061 609.222 150.214 609.073 154.315C608.748 162.571 608.275 174.616 607.72 190.099C606.488 221.025 604.715 265.295 602.577 318.673V318.957H602.265L380.862 309.957H380.51V309.605C383.149 245.711 385.653 185.335 387.832 132.674V132.363H388.143L548.237 139.13L593.441 141.079L605.378 141.607L608.437 141.742L609.479 141.769Z" fill="#263238"/>
<path d="M395.368 144.133L388.994 298.804L594.767 307.284L601.141 152.613L395.368 144.133Z" fill="#455A64"/>
<path d="M388.969 298.778L464.787 205.596L506.837 267.582L538.358 236.67L594.741 307.25L388.969 298.778Z" fill="#263238"/>
<path d="M528.306 199.314C530.265 190.576 524.77 181.904 516.033 179.945C507.295 177.985 498.623 183.48 496.664 192.218C494.704 200.955 500.199 209.627 508.937 211.587C517.674 213.546 526.346 208.051 528.306 199.314Z" fill="#263238"/>
<path d="M620.198 217.83L320.392 259.109L352.142 478.686L649.486 436.798L620.198 217.83Z" fill="#EBEBEB"/>
<path d="M621.349 190.438L325.007 251.855L371.51 468.793L665.348 406.928L621.349 190.438Z" fill="#E0E0E0"/>
<path d="M595.174 166.09L309.7 266.54L384.746 475.33L667.703 374.771L595.174 166.09Z" fill="white"/>
<path d="M595.174 166.09C595.959 168.336 623.879 248.309 667.973 374.677L668.068 374.947L667.797 375.042L384.936 475.654L384.597 475.776L384.489 475.438L383.934 473.922C357.231 399.579 331.909 329.108 309.497 266.648L309.388 266.337L309.686 266.242L595.255 166.09L309.808 266.837L309.997 266.431L384.529 473.678L385.084 475.208L384.624 474.991L667.608 374.501L667.432 374.866C623.663 248.377 595.959 168.336 595.174 166.09Z" fill="#263238"/>
<path d="M603.226 366.353C602.672 366.556 588.962 330.948 572.599 286.827C556.236 242.706 543.392 206.773 543.947 206.57C544.502 206.367 558.199 241.962 574.575 286.096C590.951 330.231 603.768 366.123 603.226 366.353Z" fill="#263238"/>
<path d="M578.838 377.492C578.297 377.695 564.573 342.087 548.211 297.979C531.848 253.872 519.018 217.912 519.559 217.709C520.1 217.506 533.824 253.114 550.2 297.235C566.576 341.356 579.393 377.289 578.838 377.492Z" fill="#263238"/>
<path d="M503.142 409.202C502.601 409.405 488.877 373.797 472.515 329.676C456.152 285.555 443.322 249.622 443.863 249.419C444.404 249.216 458.128 284.811 474.491 328.945C490.853 373.08 503.684 408.999 503.142 409.202Z" fill="#263238"/>
<path d="M527.273 399.485C526.718 399.688 513.008 364.08 496.646 319.959C480.283 275.838 467.439 239.905 467.994 239.702C468.549 239.499 482.246 275.093 498.622 319.228C514.998 363.362 527.828 399.282 527.273 399.485Z" fill="#263238"/>
<path d="M551.391 389.767C550.85 389.97 537.14 354.362 520.763 310.255C504.387 266.147 491.57 230.187 492.112 229.984C492.653 229.781 506.377 265.389 522.753 309.51C539.129 353.631 551.946 389.564 551.391 389.767Z" fill="#263238"/>
<path d="M475.194 417.241C474.653 417.444 460.929 381.836 444.567 337.715C428.204 293.594 415.374 257.661 415.915 257.458C416.456 257.255 430.18 292.85 446.556 336.984C462.932 381.119 475.749 417.038 475.194 417.241Z" fill="#263238"/>
<path d="M448.464 427.027C447.923 427.23 434.213 391.621 417.837 347.514C401.461 303.407 388.644 267.46 389.185 267.325C389.727 267.189 403.45 302.73 419.826 346.851C436.203 390.972 449.019 426.837 448.464 427.027Z" fill="#263238"/>
<path d="M421.748 436.839C421.193 437.042 407.483 401.434 391.107 357.326C374.731 313.219 361.914 277.259 362.469 277.056C363.024 276.853 376.721 312.461 393.097 356.582C409.473 400.703 422.263 436.636 421.748 436.839Z" fill="#263238"/>
<path d="M261.004 296.152L284.865 495.901C285.069 497.616 285.894 499.196 287.182 500.345C288.471 501.494 290.135 502.133 291.862 502.14L604.147 503.088C605.928 503.097 607.648 502.433 608.96 501.228C610.273 500.023 611.082 498.367 611.225 496.591L627.561 296.964C627.639 295.991 627.515 295.012 627.198 294.088C626.88 293.165 626.375 292.317 625.714 291.598C625.053 290.878 624.251 290.304 623.358 289.909C622.465 289.514 621.5 289.308 620.523 289.304L268.055 288.235C267.053 288.231 266.062 288.441 265.146 288.85C264.231 289.258 263.413 289.857 262.747 290.605C262.08 291.354 261.58 292.235 261.28 293.192C260.979 294.148 260.885 295.157 261.004 296.152Z" fill="#0103AB"/>
<path d="M643.084 240.446L632.555 247.985L638.699 278.165L652.531 265.822L643.084 240.446Z" fill="#BF7A62"/>
<path d="M645.48 467.439L689.263 446.164L745.429 452.931C749.19 455.764 751.715 459.937 752.48 464.583C752.852 466.085 752.624 467.673 751.844 469.009C750.585 470.768 748 470.985 745.903 470.471C743.805 469.956 741.842 468.86 739.69 468.603C735.508 468.116 731.651 470.782 728.511 473.584C725.371 476.385 722.245 479.579 718.144 480.527C714.456 481.132 710.672 480.423 707.452 478.523C704.177 476.818 701.254 474.463 697.978 472.636C692.044 469.052 685.1 467.508 678.205 468.238C672.791 468.955 667.649 471.337 662.208 472.203C656.767 473.069 648.363 472.108 645.412 467.466" fill="#455A64"/>
<path d="M749.868 554.314C749.868 554.314 714.003 432.034 713.326 428.123C712.704 424.59 718.293 338.92 720.797 316.697L681.291 317.022V317.401L662.519 317.861L670.91 561.014L695.204 562.881L695.042 482.652C710.362 521.4 728.132 564.546 728.132 564.546L749.868 554.314Z" fill="#D89377"/>
<path d="M679.031 422.52C679.031 422.52 678.95 423.467 678.868 425.227C678.728 427.64 678.765 430.06 678.977 432.467C679.275 436.042 679.868 439.587 680.75 443.064C681.913 447.305 683.342 451.468 685.026 455.529C688.356 464.299 691.333 472.271 693.445 478.036C694.446 480.851 695.285 483.166 695.908 484.898C696.238 485.731 696.509 486.585 696.72 487.456C696.294 486.668 695.928 485.849 695.624 485.006C694.947 483.288 694.027 480.946 692.917 478.239C690.67 472.514 687.611 464.584 684.282 455.8C683.456 453.607 682.644 451.456 681.873 449.385C681.146 447.372 680.532 445.321 680.032 443.24C679.18 439.717 678.636 436.126 678.408 432.508C678.254 430.072 678.299 427.628 678.544 425.199C678.638 424.333 678.747 423.684 678.841 423.237C678.862 422.989 678.926 422.746 679.031 422.52Z" fill="#BF7A62"/>
<path d="M695.096 511.831C695.096 511.087 695.651 484.614 695.651 484.614C695.651 484.614 686.853 460.05 686.623 460.794C686.393 461.539 695.096 511.831 695.096 511.831Z" fill="#BF7A62"/>
<path d="M669.543 560.933V558.226L695.258 558.74L695.123 567.754L693.539 567.835C686.461 568.092 657.512 568.688 652.802 567.172C647.672 565.439 669.543 560.933 669.543 560.933Z" fill="#0103AB"/>
<g opacity="0.3">
<path opacity="0.3" d="M685.947 567.361C686.363 565.203 687.563 563.274 689.317 561.948C691.033 560.629 693.184 560.006 695.339 560.202L695.217 567.361H685.947Z" fill="white"/>
</g>
<path opacity="0.3" d="M658.851 563.518C658.851 563.518 651.164 565.575 652.084 566.861C653.005 568.146 682.292 568.633 695.217 567.727V567.158L661.071 566.861C661.071 566.861 660.34 563.599 658.851 563.518Z" fill="white"/>
<path d="M695.65 567.145C695.502 567.162 695.352 567.162 695.204 567.145H693.945L689.276 567.266C685.337 567.334 679.897 567.375 673.888 567.266C667.879 567.158 662.438 566.955 658.499 566.752L653.844 566.481L652.585 566.387H652.138H652.585H653.844L658.513 566.563C662.451 566.712 667.879 566.887 673.888 566.982C679.897 567.077 685.337 567.091 689.276 567.077H693.945H695.204L695.65 567.145Z" fill="#263238"/>
<path d="M661.057 567.253C660.866 566.478 660.585 565.728 660.218 565.02C659.77 564.358 659.248 563.75 658.662 563.206C659.457 563.507 660.109 564.097 660.489 564.857C660.961 565.561 661.163 566.412 661.057 567.253Z" fill="#263238"/>
<path d="M668.691 563.545C668.609 563.545 668.258 563.139 667.892 562.543C667.63 562.205 667.45 561.812 667.364 561.393C667.445 561.393 667.797 561.785 668.163 562.381C668.426 562.723 668.607 563.121 668.691 563.545Z" fill="#263238"/>
<path d="M670.775 562.489C670.775 562.489 670.328 562.273 669.882 561.867C669.435 561.461 669.151 561.082 669.205 561.014C669.259 560.946 669.665 561.23 670.098 561.636C670.531 562.042 670.843 562.367 670.775 562.489Z" fill="#263238"/>
<path d="M672.142 560.093C671.706 560.237 671.244 560.283 670.788 560.229C670.057 560.229 669.435 560.161 669.435 560.066C669.87 559.918 670.332 559.868 670.788 559.918C671.247 559.87 671.71 559.93 672.142 560.093Z" fill="#263238"/>
<path d="M672.643 558.388C672.177 558.626 671.667 558.764 671.145 558.794C670.623 558.825 670.101 558.746 669.611 558.564C670.112 558.487 670.62 558.46 671.127 558.483C671.629 558.409 672.136 558.377 672.643 558.388Z" fill="#263238"/>
<path d="M667.852 561.298C667.309 561.385 666.756 561.385 666.214 561.298C665.616 561.214 665.027 561.073 664.455 560.878C664.111 560.769 663.78 560.624 663.467 560.445C663.274 560.329 663.129 560.146 663.061 559.931C663.041 559.806 663.055 559.679 663.103 559.562C663.151 559.445 663.23 559.343 663.331 559.268C663.967 558.973 664.685 558.908 665.364 559.083C666.042 559.258 666.639 559.663 667.053 560.229C667.296 560.557 667.47 560.929 667.567 561.325C667.567 561.609 667.567 561.772 667.567 561.772C667.409 561.282 667.166 560.824 666.85 560.418C666.494 559.985 666.026 559.657 665.497 559.471C665.179 559.357 664.842 559.308 664.505 559.327C664.168 559.345 663.838 559.431 663.534 559.579C663.264 559.769 663.358 560.066 663.656 560.256C663.944 560.421 664.248 560.557 664.563 560.662C665.113 560.865 665.679 561.023 666.255 561.136C667.229 561.23 667.852 561.244 667.852 561.298Z" fill="#263238"/>
<path d="M667.432 561.366C667.225 561.02 667.162 560.607 667.256 560.215C667.316 559.786 667.479 559.378 667.73 559.024C667.869 558.786 668.066 558.586 668.302 558.444C668.539 558.302 668.807 558.223 669.083 558.212C669.25 558.251 669.396 558.353 669.489 558.497C669.582 558.641 669.616 558.815 669.584 558.984C669.535 559.245 669.434 559.493 669.286 559.714C669.07 560.077 668.8 560.405 668.488 560.689C667.973 561.19 667.554 561.379 667.54 561.338C667.527 561.298 667.879 561.054 668.339 560.54C668.605 560.239 668.841 559.913 669.043 559.566C669.273 559.214 669.435 558.591 669.043 558.51C668.65 558.429 668.203 558.875 667.946 559.2C667.707 559.511 667.54 559.872 667.459 560.256C667.414 560.624 667.405 560.996 667.432 561.366Z" fill="#263238"/>
<path d="M695.204 560.12C695.204 560.12 694.473 560.039 693.309 560.12C691.8 560.263 690.36 560.826 689.154 561.745C687.939 562.673 687.002 563.919 686.447 565.345C686.041 566.441 685.987 567.185 685.933 567.172C685.904 567.002 685.904 566.828 685.933 566.657C685.979 566.196 686.079 565.742 686.231 565.304C686.728 563.799 687.673 562.482 688.938 561.528C690.189 560.573 691.697 560.013 693.269 559.917C693.721 559.896 694.174 559.918 694.622 559.985C694.822 559.995 695.02 560.041 695.204 560.12Z" fill="#263238"/>
<path d="M682.766 564.803C681.535 565.067 680.275 565.171 679.017 565.115C677.757 565.156 676.497 565.033 675.268 564.749C675.268 564.654 676.947 564.749 679.017 564.749C681.088 564.749 682.753 564.709 682.766 564.803Z" fill="#263238"/>
<path d="M687.787 564.884C687.787 564.952 687.638 565.236 687.462 565.615C687.286 565.994 687.192 566.333 687.097 566.333C687.002 566.333 686.975 565.927 687.178 565.48C687.381 565.033 687.733 564.817 687.787 564.884Z" fill="#263238"/>
<path d="M689.723 562.556C689.723 562.624 689.614 562.881 689.344 563.152C689.073 563.423 688.802 563.572 688.748 563.517C688.694 563.463 688.856 563.193 689.127 562.922C689.398 562.651 689.655 562.502 689.723 562.556Z" fill="#263238"/>
<path d="M692.443 561.528C692.443 561.623 692.091 561.609 691.712 561.731C691.333 561.853 691.062 562.056 690.995 562.002C690.927 561.948 691.144 561.582 691.617 561.433C692.091 561.284 692.484 561.447 692.443 561.528Z" fill="#263238"/>
<path d="M694.392 561.014C694.392 561.095 694.27 561.23 694.053 561.298C693.837 561.365 693.647 561.379 693.607 561.298C693.566 561.217 693.729 561.095 693.945 561.014C694.162 560.932 694.297 561.014 694.392 561.014Z" fill="#263238"/>
<path d="M728.132 565.074L726.968 562.597L750.247 551.567L754.172 559.687L752.818 560.472C746.593 563.869 720.946 577.309 716.06 578.067C710.538 578.906 728.132 565.074 728.132 565.074Z" fill="#0103AB"/>
<g opacity="0.3">
<path opacity="0.3" d="M745.727 563.545C745.134 561.428 745.346 559.167 746.322 557.197C747.277 555.255 748.923 553.74 750.937 552.948L754.023 559.417L745.727 563.545Z" fill="white"/>
</g>
<path opacity="0.3" d="M719.701 572.193C719.701 572.193 713.759 577.471 715.153 578.189C716.547 578.906 742.979 566.306 754.158 559.728L753.874 559.227L723.165 574.196C723.165 574.196 721.081 571.611 719.701 572.193Z" fill="white"/>
<path d="M754.226 559.038C754.109 559.133 753.982 559.214 753.847 559.281L752.737 559.89L748.677 562.083C745.185 563.897 740.327 566.36 734.9 568.945C729.472 571.53 724.519 573.776 720.905 575.346L716.561 577.255L715.383 577.728L714.964 577.877C715.088 577.797 715.219 577.729 715.356 577.674L716.507 577.146L720.756 575.224C724.343 573.6 729.283 571.327 734.71 568.742C740.137 566.157 744.996 563.721 748.515 561.975L752.683 559.877L753.82 559.322C753.949 559.218 754.085 559.123 754.226 559.038Z" fill="#263238"/>
<path d="M723.341 574.548C722.838 573.929 722.255 573.378 721.609 572.91C720.91 572.518 720.17 572.205 719.403 571.976C720.248 571.909 721.089 572.15 721.771 572.653C722.519 573.059 723.082 573.738 723.341 574.548Z" fill="#263238"/>
<path d="M728.525 567.781C728.105 567.689 727.712 567.504 727.374 567.239C726.779 566.874 726.332 566.509 726.386 566.441C726.44 566.373 726.941 566.603 727.537 566.969C728.132 567.334 728.565 567.781 728.525 567.781Z" fill="#263238"/>
<path d="M729.919 565.954C729.919 566.035 729.418 565.954 728.85 565.791C728.281 565.629 727.834 565.426 727.862 565.345C727.889 565.263 728.362 565.345 728.944 565.493C729.526 565.642 729.946 565.859 729.919 565.954Z" fill="#263238"/>
<path d="M730.068 563.193C730.068 563.274 729.594 563.599 728.931 563.923C728.543 564.163 728.11 564.32 727.658 564.384C727.658 564.302 728.132 563.978 728.795 563.653C729.183 563.413 729.616 563.257 730.068 563.193Z" fill="#263238"/>
<path d="M729.743 561.46C729.743 561.46 729.337 562.069 728.579 562.503C728.147 562.808 727.632 562.973 727.104 562.976C727.53 562.685 727.983 562.436 728.457 562.232C729.147 561.826 729.675 561.393 729.743 561.46Z" fill="#263238"/>
<path d="M726.779 566.184C726.33 566.507 725.825 566.746 725.29 566.887C724.717 567.076 724.128 567.211 723.531 567.293C723.171 567.342 722.807 567.342 722.448 567.293C722.224 567.279 722.015 567.177 721.866 567.009C721.797 566.905 721.76 566.783 721.76 566.657C721.76 566.532 721.797 566.41 721.866 566.305C722.305 565.76 722.919 565.381 723.603 565.233C724.288 565.086 725.003 565.177 725.628 565.493C725.995 565.681 726.318 565.944 726.576 566.265C726.765 566.481 726.833 566.63 726.806 566.644C726.442 566.255 726.011 565.934 725.534 565.696C725.011 565.467 724.433 565.392 723.869 565.48C723.533 565.518 723.208 565.622 722.913 565.787C722.618 565.952 722.358 566.174 722.15 566.441C722.001 566.739 722.218 566.969 722.556 566.996C722.894 567.029 723.234 567.029 723.571 566.996C724.151 566.929 724.726 566.82 725.29 566.671C726.183 566.427 726.779 566.143 726.779 566.184Z" fill="#263238"/>
<path d="M726.427 566.427C726.427 566.427 726.007 566.184 725.764 565.48C725.62 565.067 725.583 564.625 725.655 564.194C725.669 563.913 725.756 563.639 725.908 563.402C726.06 563.164 726.271 562.971 726.522 562.841C726.687 562.799 726.861 562.824 727.008 562.91C727.155 562.997 727.262 563.137 727.307 563.301C727.394 563.553 727.417 563.823 727.374 564.086C727.339 564.511 727.248 564.93 727.104 565.331C727.006 565.709 726.81 566.055 726.535 566.333C726.535 566.333 726.711 565.927 726.887 565.263C726.997 564.875 727.065 564.475 727.09 564.072C727.09 563.653 727.009 563.03 726.603 563.139C726.197 563.247 726.021 563.829 725.926 564.235C725.842 564.618 725.842 565.015 725.926 565.399C726.054 565.759 726.222 566.104 726.427 566.427Z" fill="#263238"/>
<path d="M750.734 552.893C750.734 552.893 750.044 553.15 749.056 553.773C747.769 554.581 746.729 555.728 746.051 557.089C745.403 558.464 745.141 559.989 745.293 561.501C745.415 562.651 745.699 563.342 745.645 563.355C745.54 563.218 745.462 563.062 745.415 562.895C745.265 562.454 745.152 562.001 745.077 561.542C744.802 559.743 745.167 557.906 746.106 556.348C747.046 554.791 748.501 553.611 750.22 553.015C750.384 552.948 750.557 552.907 750.734 552.893Z" fill="#263238"/>
<path d="M741.666 562.678C740.684 563.468 739.601 564.123 738.445 564.627C737.343 565.233 736.164 565.689 734.94 565.981C734.94 565.899 736.456 565.277 738.31 564.357C740.164 563.436 741.666 562.597 741.666 562.678Z" fill="#263238"/>
<path d="M746.213 560.513C746.295 560.513 746.213 560.892 746.213 561.311C746.213 561.731 746.295 562.083 746.213 562.11C746.132 562.137 745.929 561.799 745.916 561.311C745.902 560.824 746.132 560.472 746.213 560.513Z" fill="#263238"/>
<path d="M746.904 557.562C746.985 557.562 746.904 557.901 746.904 558.266C746.904 558.632 746.606 558.889 746.525 558.862C746.444 558.835 746.525 558.523 746.606 558.158C746.687 557.793 746.823 557.535 746.904 557.562Z" fill="#263238"/>
<path d="M748.893 555.424C748.893 555.519 748.609 555.654 748.325 555.939C748.041 556.223 747.878 556.521 747.797 556.494C747.716 556.467 747.797 556.06 748.109 555.722C748.42 555.384 748.88 555.343 748.893 555.424Z" fill="#263238"/>
<path d="M750.409 554.138C750.409 554.138 750.409 554.382 750.247 554.544C750.084 554.707 749.908 554.801 749.854 554.734C749.8 554.666 749.854 554.504 750.017 554.328C750.179 554.152 750.355 554.084 750.409 554.138Z" fill="#263238"/>
<path d="M719.741 309.808C708.914 291.131 706.207 293.31 709.861 282.429L720.418 247.024L715.952 224.828C713.492 222.433 710.555 220.585 707.331 219.405C704.108 218.225 700.672 217.739 697.247 217.98L675.214 219.495C675.214 219.495 664.387 217.127 648.39 232.637L637.373 242.963L651.299 269.395L652.003 281.387L662.045 314.18L659.339 328.648C658.175 339.651 643.382 465.842 645.385 467.845C647.388 469.848 678.327 454.487 685.798 460.794C693.268 467.101 708.305 470.972 716.791 468.251C725.277 465.531 737.999 448.654 750.842 460.036C750.869 460.036 746.674 348.069 719.741 309.808Z" fill="#263238"/>
<path d="M707.615 219.509C707.615 219.509 730.622 225.613 727.171 242.002C725.507 250.123 714.503 266.878 714.503 266.878L688.491 254.576L707.615 219.509Z" fill="#263238"/>
<path d="M660.8 320.906C665.338 316.985 671.182 314.908 677.176 315.087C680.216 315.196 683.178 316.076 685.784 317.644C688.807 319.457 691.176 322.182 692.551 325.427C693.277 327.187 693.6 329.088 693.499 330.989C693.354 332.967 692.776 334.889 691.807 336.619C689.953 340.179 687.029 343.143 685.04 346.77C683.05 350.397 682.928 354.552 683.213 358.423C683.497 362.293 684.065 366.178 683.213 369.805C682.849 371.567 682.18 373.253 681.237 374.785C680.37 376.274 679.111 377.496 677.596 378.318C676.157 379.067 674.519 379.346 672.913 379.116C671.469 378.877 670.087 378.348 668.853 377.56C666.805 376.166 664.929 374.535 663.263 372.701C661.94 371.41 660.548 370.19 659.095 369.047C658.18 368.318 657.211 367.657 656.199 367.071C655.508 366.665 655.116 366.489 655.129 366.462C655.143 366.435 655.238 366.462 655.427 366.557C655.617 366.651 655.915 366.76 656.266 366.935C657.312 367.482 658.312 368.111 659.257 368.817C660.747 369.939 662.174 371.141 663.534 372.417C665.207 374.198 667.078 375.783 669.11 377.14C670.3 377.874 671.626 378.362 673.008 378.575C674.497 378.775 676.011 378.505 677.339 377.803C678.752 377.02 679.922 375.864 680.722 374.46C681.618 372.984 682.25 371.363 682.59 369.669C683.416 366.191 682.82 362.388 682.59 358.477C682.408 356.46 682.408 354.43 682.59 352.413C682.816 350.317 683.451 348.284 684.458 346.431C686.474 342.682 689.384 339.746 691.225 336.308C692.162 334.646 692.721 332.797 692.862 330.894C692.964 329.091 692.664 327.289 691.983 325.616C690.69 322.491 688.439 319.856 685.554 318.091C683.043 316.543 680.178 315.662 677.231 315.533C672.935 315.264 668.654 316.241 664.901 318.348C663.872 318.904 662.874 319.514 661.91 320.175L661.152 320.703C660.909 320.866 660.814 320.92 660.8 320.906Z" fill="#FAFAFA"/>
<path d="M748.163 425.849L747.811 425.944L746.755 426.12C745.821 426.269 744.454 426.485 742.695 426.715C737.697 427.473 732.645 427.817 727.591 427.744C724.091 427.688 720.608 427.234 717.21 426.39C713.289 425.419 709.569 423.765 706.221 421.505C702.474 419.014 699.497 415.527 697.627 411.435C695.646 406.994 695.24 402.009 696.476 397.306C697.156 394.935 698.353 392.744 699.982 390.891C701.604 389.187 703.365 387.62 705.246 386.208C707.03 384.872 708.659 383.342 710.105 381.647C711.41 379.976 712.309 378.026 712.731 375.949C713.597 371.889 713.191 367.829 713.38 364.066C713.368 360.528 714.253 357.045 715.952 353.943C717.396 351.415 719.362 349.224 721.717 347.514C723.479 346.215 725.44 345.209 727.523 344.536C728.841 344.109 730.203 343.836 731.584 343.724H732.653H733.018C731.175 343.864 729.357 344.233 727.605 344.821C725.57 345.525 723.66 346.548 721.947 347.852C719.411 349.724 717.359 352.174 715.961 354.999C714.562 357.824 713.859 360.942 713.908 364.093C713.746 367.815 714.192 371.875 713.313 376.098C712.892 378.272 711.965 380.317 710.606 382.066C709.137 383.814 707.476 385.389 705.652 386.763C703.799 388.154 702.065 389.698 700.469 391.378C698.92 393.153 697.779 395.246 697.126 397.509C695.932 402.054 696.324 406.871 698.236 411.165C700.04 415.156 702.928 418.56 706.573 420.99C709.849 423.22 713.491 424.86 717.332 425.835C720.682 426.707 724.118 427.202 727.578 427.311C732.607 427.417 737.637 427.15 742.627 426.512L746.688 426.052L747.743 425.93L748.163 425.849Z" fill="#FAFAFA"/>
<path d="M683.646 459.684C683.79 459.554 683.949 459.44 684.12 459.346C684.609 459.1 685.065 458.791 685.473 458.426C685.947 457.952 685.757 457.072 685.473 456.111C685.069 455.054 684.57 454.035 683.984 453.066C682.753 450.833 681.277 448.18 679.518 445.338C677.623 442.248 675.35 439.406 672.751 436.879C670.16 434.357 667.052 432.427 663.643 431.222C660.866 430.242 657.892 429.959 654.981 430.397C653.02 430.733 651.165 431.526 649.567 432.711C648.444 433.564 647.916 434.159 647.862 434.064C647.958 433.896 648.076 433.741 648.214 433.604C648.582 433.192 648.98 432.807 649.405 432.454C650.985 431.144 652.87 430.255 654.886 429.869C657.883 429.338 660.965 429.576 663.846 430.559C667.364 431.763 670.572 433.732 673.238 436.325C675.883 438.893 678.181 441.796 680.073 444.959C681.846 447.828 683.24 450.535 684.431 452.782C684.98 453.793 685.433 454.853 685.784 455.949C685.929 456.415 686.02 456.896 686.055 457.383C686.072 457.6 686.044 457.818 685.971 458.023C685.899 458.229 685.785 458.416 685.635 458.574C685.207 458.936 684.723 459.224 684.201 459.427C683.849 459.63 683.659 459.711 683.646 459.684Z" fill="#FAFAFA"/>
<path d="M713.245 300.564C713.245 300.564 713.082 300.889 712.595 301.268C711.885 301.794 711.067 302.154 710.2 302.324C708.904 302.576 707.564 302.463 706.329 301.999C704.822 301.403 703.523 300.377 702.594 299.048C700.969 296.637 700.268 293.72 700.618 290.833C700.661 289.656 700.918 288.495 701.375 287.409C701.497 287.409 701.199 288.763 701.118 290.86C700.926 293.604 701.644 296.335 703.162 298.629C704.022 299.828 705.198 300.765 706.559 301.336C707.687 301.788 708.913 301.942 710.118 301.782C711.232 301.591 712.295 301.177 713.245 300.564Z" fill="#FAFAFA"/>
<path d="M715.207 261.641C715.207 261.641 715.031 261.641 714.68 261.762C714.166 261.809 713.65 261.809 713.137 261.762C711.223 261.616 709.392 260.926 707.858 259.773C706.789 258.979 705.899 257.969 705.246 256.809C704.499 255.464 704.081 253.961 704.028 252.424C703.943 250.722 704.292 249.027 705.043 247.497C705.93 245.942 707.033 244.521 708.319 243.275C708.9 242.641 709.392 241.931 709.78 241.163C710.139 240.444 710.275 239.633 710.173 238.836C709.757 237.289 709.089 235.821 708.197 234.491C707.485 233.227 707.165 231.78 707.279 230.334C707.392 228.888 707.933 227.508 708.833 226.371C709.446 225.627 710.206 225.017 711.065 224.579C711.924 224.141 712.864 223.885 713.827 223.826C714.343 223.792 714.862 223.824 715.37 223.921C715.549 223.938 715.724 223.988 715.884 224.07C715.884 224.151 715.153 223.948 713.854 224.07C712.938 224.179 712.054 224.47 711.252 224.926C710.45 225.381 709.747 225.992 709.185 226.723C708.37 227.79 707.892 229.075 707.81 230.415C707.728 231.755 708.046 233.089 708.725 234.248C709.679 235.632 710.389 237.17 710.822 238.795C710.937 239.721 710.782 240.661 710.376 241.502C709.962 242.33 709.433 243.095 708.806 243.776C707.569 244.985 706.496 246.349 705.612 247.836C704.918 249.263 704.584 250.838 704.637 252.424C704.666 253.772 704.992 255.098 705.593 256.306C706.195 257.513 707.056 258.572 708.116 259.407C709.57 260.54 711.297 261.268 713.123 261.519C714.463 261.681 715.207 261.573 715.207 261.641Z" fill="#FAFAFA"/>
<path d="M653.099 274.66C653.822 274.749 654.55 274.785 655.278 274.768C657.253 274.67 659.132 273.89 660.597 272.562C661.645 271.572 662.405 270.318 662.798 268.931C663.191 267.545 663.202 266.078 662.83 264.686C662.396 263.028 661.449 261.55 660.124 260.463C658.59 259.303 657.247 257.91 656.145 256.335C655.247 254.58 654.929 252.585 655.238 250.637C655.441 248.783 655.874 247.064 656.158 245.427C656.482 243.902 656.578 242.337 656.442 240.784C656.313 239.445 655.801 238.172 654.967 237.117C653.735 235.576 651.975 234.548 650.027 234.234C649.304 234.153 648.575 234.126 647.848 234.153C647.848 234.153 648.024 234.085 648.403 234.004C648.951 233.936 649.506 233.936 650.054 234.004C652.124 234.227 654.027 235.246 655.36 236.846C656.282 237.956 656.86 239.31 657.024 240.744C657.195 242.357 657.117 243.986 656.794 245.575C656.523 247.254 656.104 248.959 655.928 250.745C655.642 252.548 655.931 254.395 656.754 256.024C657.832 257.528 659.127 258.865 660.597 259.989C661.99 261.185 662.979 262.783 663.426 264.564C663.81 266.062 663.778 267.637 663.332 269.119C662.885 270.6 662.043 271.931 660.895 272.968C659.33 274.329 657.325 275.079 655.251 275.08C654.696 275.089 654.141 275.03 653.6 274.904C653.275 274.755 653.086 274.687 653.099 274.66Z" fill="#FAFAFA"/>
<path d="M686.461 151.608C688.77 151.148 691.151 151.187 693.444 151.723C695.737 152.259 697.888 153.279 699.755 154.714C701.621 156.15 703.159 157.968 704.264 160.047C705.37 162.125 706.019 164.417 706.166 166.767C706.329 169.352 706.004 172.343 707.831 174.183C709.184 175.537 711.106 175.753 712.717 176.633C714.222 177.503 715.377 178.872 715.98 180.503C716.583 182.135 716.597 183.925 716.019 185.565C715.397 187.176 714.206 188.543 713.597 190.167C712.703 192.563 711.959 195.31 712.69 197.76C716.452 210.617 707.276 212.187 702.485 213.053C695.637 214.258 688.694 212.079 687.99 204.933C687.76 202.618 683.632 202.875 681.331 203.173C678.625 203.539 676.5 205.88 674.47 207.761C671.395 210.892 667.503 213.096 663.236 214.122C661.106 214.611 658.887 214.568 656.777 213.997C654.667 213.426 652.73 212.344 651.137 210.847C648.105 207.721 647.361 202.348 650.027 198.91C648.399 198.168 646.96 197.068 645.818 195.691C644.676 194.314 643.86 192.697 643.432 190.96C643.004 189.223 642.974 187.412 643.345 185.662C643.716 183.912 644.478 182.269 645.574 180.856C647.239 178.704 649.635 177.107 650.839 174.657C651.841 172.6 652.923 167.89 653.708 165.711C654.818 162.639 658.608 157.374 661.545 155.939" fill="#455A64"/>
<path d="M698.628 221.823L673.211 222.189C672.778 219.252 671.925 207.843 671.925 207.843C671.925 207.843 661.274 207.193 660.151 196.718C659.027 186.242 658.581 161.962 658.581 161.962C664.303 158.84 670.756 157.3 677.272 157.502C683.788 157.704 690.132 159.641 695.65 163.113L697.315 164.155L698.628 221.823Z" fill="#D89377"/>
<path d="M671.073 189.883C670.302 189.647 669.495 189.551 668.691 189.599C668.312 189.599 668 189.599 667.96 189.341C667.908 188.964 667.964 188.579 668.122 188.232L668.988 185.186C670.179 180.856 670.964 177.296 670.734 177.242C670.504 177.188 669.381 180.639 668.19 184.97C667.919 186.026 667.649 187.041 667.391 188.029C667.213 188.546 667.213 189.108 667.391 189.626C667.459 189.764 667.558 189.885 667.68 189.979C667.802 190.072 667.944 190.137 668.095 190.167C668.311 190.193 668.529 190.193 668.745 190.167C669.531 190.195 670.316 190.099 671.073 189.883Z" fill="#263238"/>
<path d="M671.885 207.694C676.739 207.322 681.374 205.518 685.202 202.51C685.202 202.51 682.685 210.373 672.115 210.414L671.885 207.694Z" fill="#BF7A62"/>
<path d="M678.977 178.92C678.977 179.279 678.834 179.623 678.58 179.877C678.326 180.131 677.982 180.274 677.623 180.274C677.453 180.285 677.282 180.261 677.121 180.205C676.96 180.148 676.811 180.06 676.685 179.945C676.559 179.83 676.457 179.691 676.386 179.536C676.314 179.381 676.275 179.213 676.27 179.042C676.27 178.683 676.412 178.339 676.666 178.085C676.92 177.831 677.264 177.689 677.623 177.689C677.794 177.678 677.964 177.701 678.126 177.758C678.287 177.814 678.435 177.902 678.561 178.017C678.687 178.132 678.789 178.271 678.861 178.427C678.932 178.582 678.971 178.75 678.977 178.92Z" fill="#263238"/>
<path d="M681.156 177.486C680.993 177.648 680.005 176.89 678.571 176.863C677.136 176.836 676.08 177.526 675.864 177.35C675.647 177.174 675.972 176.958 676.432 176.633C677.062 176.219 677.803 176.006 678.557 176.024C679.302 176.036 680.024 176.287 680.614 176.741C681.102 177.093 681.237 177.404 681.156 177.486Z" fill="#263238"/>
<path d="M664.319 178.88C664.319 179.239 664.177 179.583 663.923 179.837C663.669 180.09 663.325 180.233 662.966 180.233C662.796 180.246 662.625 180.224 662.464 180.169C662.303 180.114 662.155 180.027 662.028 179.914C661.902 179.8 661.8 179.661 661.728 179.507C661.657 179.353 661.617 179.185 661.612 179.015C661.612 178.656 661.755 178.312 662.009 178.058C662.263 177.804 662.607 177.662 662.966 177.662C663.302 177.66 663.628 177.784 663.878 178.009C664.128 178.234 664.285 178.545 664.319 178.88Z" fill="#263238"/>
<path d="M666.214 177.702C666.052 177.865 665.064 177.107 663.629 177.08C662.194 177.053 661.139 177.743 660.922 177.567C660.706 177.391 661.03 177.174 661.491 176.849C662.122 176.44 662.863 176.232 663.615 176.254C664.359 176.262 665.08 176.509 665.673 176.958C666.16 177.31 666.309 177.621 666.214 177.702Z" fill="#263238"/>
<path d="M673.482 193.564C673.338 193.23 673.26 192.872 673.252 192.509C673.254 192.325 673.308 192.146 673.409 191.992C673.51 191.839 673.653 191.717 673.82 191.642C674.064 191.561 674.361 191.642 674.578 191.466C674.795 191.29 674.876 190.844 675.052 190.519C675.181 190.312 675.372 190.151 675.598 190.059C675.824 189.967 676.073 189.948 676.31 190.005C676.779 190.139 677.201 190.402 677.528 190.763C677.955 191.138 678.225 191.66 678.286 192.224C678.27 192.495 678.19 192.759 678.054 192.994C677.918 193.229 677.729 193.429 677.501 193.578C677.033 193.879 676.499 194.064 675.945 194.119C675.354 194.209 674.755 194.232 674.158 194.187C673.986 194.183 673.816 194.146 673.658 194.079C673.58 194.041 673.515 193.981 673.472 193.906C673.428 193.831 673.408 193.745 673.414 193.659" fill="#BF7A62"/>
<path d="M672.44 193.781C673.619 193.638 674.74 193.188 675.691 192.476C676.641 191.763 677.387 190.813 677.853 189.72" fill="#BF7A62"/>
<path d="M677.894 189.72C677.627 190.934 676.934 192.011 675.941 192.756C674.947 193.501 673.719 193.865 672.48 193.781C673.536 193.326 674.558 192.797 675.539 192.197C677.027 191.087 677.704 189.626 677.894 189.72Z" fill="#263238"/>
<path d="M661.03 173.831C662.253 173.254 663.633 173.097 664.955 173.385L661.03 173.831Z" fill="#BF7A62"/>
<path d="M664.955 173.385C664.847 173.777 663.994 173.872 663.033 173.98C662.072 174.089 661.22 174.17 661.03 173.831C660.841 173.493 661.612 172.722 662.884 172.586C664.157 172.451 665.063 173.019 664.955 173.385Z" fill="#263238"/>
<path d="M675.769 173.94C677.59 173.329 679.576 173.44 681.318 174.251L675.769 173.94Z" fill="#BF7A62"/>
<path d="M681.318 174.238C681.128 174.589 679.965 174.319 678.53 174.238C677.095 174.156 675.918 174.238 675.823 173.913C675.728 173.588 676.906 172.722 678.665 172.83C680.425 172.938 681.507 173.94 681.318 174.238Z" fill="#263238"/>
<path d="M681.589 151.406C680.836 150.541 679.915 149.839 678.882 149.343C677.849 148.847 676.725 148.568 675.579 148.523C672.129 148.18 668.649 148.75 665.487 150.175C662.326 151.6 659.594 153.831 657.566 156.643C655.251 159.973 654.087 164.615 656.212 168.039C656.942 169.189 657.987 170.105 659.223 170.677C660.459 171.249 661.834 171.453 663.182 171.265C664.531 171.076 665.797 170.503 666.829 169.614C667.861 168.726 668.616 167.558 669.002 166.252C669.023 167.039 669.201 167.814 669.525 168.531C669.849 169.249 670.313 169.894 670.889 170.43C671.465 170.967 672.142 171.383 672.881 171.654C673.62 171.926 674.405 172.048 675.192 172.013C675.978 171.978 676.749 171.787 677.461 171.45C678.173 171.114 678.81 170.639 679.336 170.054C679.862 169.469 680.267 168.784 680.526 168.041C680.785 167.298 680.893 166.51 680.844 165.725C681.493 167.882 682.81 169.778 684.607 171.138C686.488 172.316 689.452 172.031 690.426 170.028C691.617 171.382 693.282 172.884 695.069 172.437C695.812 172.179 696.452 171.685 696.889 171.031C697.326 170.376 697.538 169.596 697.491 168.81C697.36 167.237 696.829 165.722 695.948 164.412C692.483 158.376 687.368 152.827 680.641 151" fill="#455A64"/>
<path d="M689.655 165.725C691.22 168.512 692.055 171.651 692.081 174.848C692.107 178.045 691.324 181.196 689.804 184.009C688.672 185.684 687.707 187.466 686.921 189.328C686.546 190.265 686.463 191.294 686.682 192.279C686.902 193.265 687.415 194.161 688.153 194.85C689.141 195.594 690.657 195.973 690.86 197.178C690.905 197.796 690.778 198.414 690.494 198.964C689.562 201.402 689.448 204.076 690.169 206.584C690.657 208.235 690.738 210.279 694.676 211.997C696.625 212.877 697.694 214.366 701.93 213.283C709.347 211.375 706.721 194.796 705.991 187.176C705.26 179.556 701.741 165.955 697.464 159.607" fill="#455A64"/>
<path d="M672.737 217.709C672.737 217.709 665.05 246.415 669.949 243.572C674.849 240.73 698.628 221.823 698.628 221.823L686.61 212.755L672.737 217.709Z" fill="#D89377"/>
<path d="M600.344 267.149C599.491 264.334 588.853 258.541 590.464 256.985C592.562 254.941 601.291 263.535 602.09 264.198C602.888 264.861 603.849 263.725 603.105 263.156C602.022 262.344 590.924 253.506 593.008 251.49C594.145 250.367 595.932 252.64 595.932 252.64C595.932 252.64 605.676 261.695 606.61 260.761C607.544 259.827 602.008 254.251 600.005 252.532C598.002 250.813 598.016 249.176 599.464 248.905C600.465 248.715 606.705 253.845 608.64 255.672C610.575 257.499 615.813 262.317 615.15 257.756C615.15 257.688 615.15 257.621 615.15 257.54C614.365 253.073 615.245 249.419 616.219 248.472C616.452 248.292 616.73 248.181 617.022 248.151C617.315 248.122 617.609 248.175 617.873 248.305C618.137 248.434 618.359 248.635 618.514 248.885C618.669 249.135 618.751 249.423 618.75 249.717C618.797 249.935 618.797 250.161 618.75 250.38C618.75 250.475 618.75 250.61 618.75 250.718C618.686 252.272 618.785 253.828 619.048 255.361C619.245 256.741 619.675 258.077 620.32 259.313C621.078 260.666 621.782 261.938 622.391 262.926C629.51 266.878 649.973 277.299 670.491 278.937C674.185 279.235 690.562 253.398 690.562 253.398L714.923 264.902C709.247 275.577 702.764 285.803 695.529 295.489C674.849 323.261 610.657 276.799 610.657 276.799L610.061 276.501C605.189 274.093 600.454 271.418 595.877 268.489C590.356 264.591 590.68 264.077 591.235 263.495C592.71 261.911 601.196 269.95 600.344 267.149Z" fill="#D89377"/>
<path d="M230.905 564.627L230.783 553.53L209.967 553.638V569.879L211.321 569.96C217.059 570.244 240.541 571.016 244.371 569.838C248.607 568.512 230.905 564.627 230.905 564.627Z" fill="#455A64"/>
<path d="M209.697 569.405H210.049H211.077L214.867 569.554C218.061 569.649 222.473 569.73 227.345 569.716C232.217 569.703 236.643 569.581 239.837 569.459L243.613 569.283L244.642 569.216H244.993C244.877 569.2 244.758 569.2 244.642 569.216H243.613L239.823 569.297C236.629 569.378 232.217 569.473 227.345 569.486C222.473 569.5 218.061 569.486 214.867 569.405L211.077 569.337H209.724L209.697 569.405Z" fill="#263238"/>
<path d="M237.726 569.851C237.884 569.222 238.116 568.613 238.416 568.038C238.811 567.505 239.265 567.019 239.769 566.59C239.113 566.83 238.574 567.315 238.267 567.943C237.852 568.488 237.658 569.17 237.726 569.851Z" fill="#263238"/>
<path d="M231.568 566.766C231.635 566.766 231.919 566.441 232.217 565.967C232.436 565.694 232.588 565.375 232.664 565.033C232.664 565.033 232.312 565.345 232.014 565.832C231.716 566.319 231.513 566.725 231.568 566.766Z" fill="#263238"/>
<path d="M229.876 565.886C229.876 565.886 230.255 565.71 230.607 565.385C230.959 565.06 231.216 564.763 231.175 564.708C231.135 564.654 230.796 564.871 230.444 565.196C230.092 565.521 229.835 565.832 229.876 565.886Z" fill="#263238"/>
<path d="M228.807 563.924C229.155 564.042 229.523 564.088 229.89 564.059C230.259 564.098 230.634 564.057 230.986 563.937C230.636 563.809 230.26 563.762 229.89 563.802C229.524 563.763 229.154 563.804 228.807 563.924Z" fill="#263238"/>
<path d="M228.441 562.543C228.799 562.776 229.219 562.894 229.646 562.881C230.072 562.947 230.509 562.891 230.905 562.719C230.499 562.643 230.085 562.616 229.673 562.638C229.267 562.564 228.854 562.532 228.441 562.543Z" fill="#263238"/>
<path d="M232.271 564.939C232.718 565.031 233.179 565.031 233.625 564.939C234.112 564.882 234.593 564.778 235.059 564.627C235.342 564.544 235.614 564.431 235.872 564.289C236.024 564.19 236.139 564.042 236.196 563.869C236.217 563.769 236.209 563.665 236.173 563.569C236.137 563.474 236.075 563.39 235.993 563.328C235.481 563.084 234.9 563.023 234.348 563.156C233.796 563.289 233.307 563.608 232.962 564.059C232.756 564.328 232.609 564.637 232.529 564.966C232.496 565.081 232.496 565.202 232.529 565.318C232.653 564.904 232.855 564.518 233.124 564.181C233.423 563.828 233.818 563.569 234.261 563.436C234.52 563.344 234.795 563.305 235.069 563.321C235.344 563.337 235.612 563.409 235.858 563.531C236.075 563.693 235.993 563.937 235.75 564.072C235.517 564.214 235.267 564.323 235.005 564.397C234.567 564.562 234.114 564.685 233.652 564.763C232.786 564.898 232.271 564.898 232.271 564.939Z" fill="#263238"/>
<path d="M232.61 565.074C232.778 564.799 232.832 564.468 232.759 564.154C232.724 563.803 232.598 563.467 232.393 563.179C232.28 562.983 232.119 562.817 231.925 562.699C231.731 562.581 231.51 562.513 231.283 562.503C231.149 562.532 231.031 562.611 230.953 562.724C230.876 562.837 230.844 562.976 230.864 563.112C230.897 563.324 230.975 563.528 231.094 563.707C231.272 564.003 231.486 564.275 231.73 564.519C231.939 564.76 232.204 564.946 232.501 565.061C232.501 565.061 232.231 564.817 231.865 564.397C231.646 564.154 231.456 563.886 231.297 563.599C231.121 563.315 230.986 562.814 231.297 562.746C231.608 562.679 231.974 563.044 232.177 563.315C232.367 563.571 232.497 563.867 232.556 564.181C232.606 564.476 232.624 564.775 232.61 565.074Z" fill="#263238"/>
<path d="M210.089 563.721C210.089 563.721 210.685 563.721 211.632 563.721C212.849 563.86 214.002 564.338 214.959 565.102C215.916 565.865 216.639 566.883 217.046 568.038C217.37 568.931 217.398 569.527 217.452 569.513C217.473 569.374 217.473 569.233 217.452 569.094C217.421 568.716 217.344 568.343 217.222 567.984C216.844 566.763 216.108 565.683 215.11 564.884C214.1 564.099 212.881 563.629 211.605 563.531C211.227 563.487 210.846 563.487 210.468 563.531C210.333 563.575 210.205 563.639 210.089 563.721Z" fill="#263238"/>
<path d="M212.214 555.045C212.073 556.466 212.019 557.895 212.052 559.322C211.986 560.748 212.018 562.177 212.146 563.599C212.278 562.177 212.327 560.749 212.295 559.322C212.352 557.896 212.325 556.468 212.214 555.045Z" fill="#263238"/>
<path d="M220.145 567.645C221.141 567.86 222.158 567.955 223.177 567.93C224.198 567.978 225.222 567.892 226.222 567.673C226.222 567.591 224.868 567.673 223.177 567.673C221.485 567.673 220.145 567.564 220.145 567.645Z" fill="#263238"/>
<path d="M216.058 567.646C216.058 567.646 216.179 567.943 216.315 568.255C216.45 568.566 216.531 568.837 216.599 568.837C216.667 568.837 216.707 568.498 216.599 568.146C216.491 567.794 216.112 567.605 216.058 567.646Z" fill="#263238"/>
<path d="M214.515 565.751C214.515 565.751 214.61 566.008 214.826 566.224C215.043 566.441 215.246 566.576 215.3 566.536C215.354 566.495 215.219 566.265 215.002 566.048C214.785 565.832 214.569 565.697 214.515 565.751Z" fill="#263238"/>
<path d="M212.322 564.884C212.322 564.952 212.607 564.952 212.918 565.06C213.229 565.169 213.446 565.318 213.5 565.277C213.554 565.236 213.378 564.939 212.999 564.817C212.62 564.695 212.295 564.817 212.322 564.884Z" fill="#263238"/>
<path d="M210.752 564.478C210.752 564.546 210.847 564.654 211.023 564.722C211.199 564.79 211.348 564.722 211.375 564.722C211.402 564.722 211.28 564.546 211.104 564.478C210.928 564.411 210.779 564.411 210.752 564.478Z" fill="#263238"/>
<path d="M109.775 548.617L115.662 539.143L98.0677 528.031L89.3247 541.768L90.3668 542.526C95.0496 545.856 114.403 559.16 118.261 560.229C122.591 561.42 109.775 548.617 109.775 548.617Z" fill="#455A64"/>
<path d="M89.3247 541.2L89.6089 541.43L90.448 542.026L93.5473 544.191C96.2541 545.991 99.8677 548.441 103.982 551.053C108.096 553.665 111.872 555.952 114.633 557.563L117.909 559.457L118.815 559.958C119.018 560.066 119.127 560.121 119.14 560.107L118.842 559.904L117.963 559.376L114.728 557.414C112.021 555.763 108.232 553.448 104.117 550.836C100.003 548.224 96.3083 545.815 93.6556 544.069L90.5022 541.971L89.636 541.417L89.3247 541.2Z" fill="#263238"/>
<path d="M112.712 556.683C113.188 556.246 113.71 555.86 114.268 555.533C114.867 555.283 115.494 555.105 116.136 555.005C115.463 554.858 114.759 554.964 114.16 555.302C113.519 555.561 113 556.055 112.712 556.683Z" fill="#263238"/>
<path d="M109.193 550.768C109.193 550.836 109.666 550.687 110.167 550.444C110.668 550.2 111.074 549.956 111.047 549.889C110.698 549.922 110.36 550.033 110.059 550.213C109.626 550.457 109.166 550.701 109.193 550.768Z" fill="#263238"/>
<path d="M108.272 549.117C108.272 549.185 108.678 549.117 109.152 549.117C109.626 549.117 110.005 548.914 109.991 548.846C109.978 548.779 109.585 548.846 109.112 548.846C108.638 548.846 108.272 549.049 108.272 549.117Z" fill="#263238"/>
<path d="M108.394 546.884C108.394 546.884 108.733 547.25 109.233 547.588C109.734 547.926 110.181 548.129 110.221 548.062C110.262 547.994 109.883 547.696 109.382 547.372C109.091 547.141 108.754 546.975 108.394 546.884Z" fill="#263238"/>
<path d="M108.827 545.517C108.827 545.517 109.098 546.045 109.666 546.464C109.984 546.751 110.38 546.935 110.803 546.992C110.803 546.925 110.357 546.667 109.815 546.261C109.505 545.989 109.175 545.74 108.827 545.517Z" fill="#263238"/>
<path d="M110.763 549.604C111.089 549.911 111.47 550.155 111.886 550.322C112.321 550.526 112.774 550.689 113.239 550.809C113.521 550.895 113.812 550.95 114.106 550.971C114.289 550.977 114.467 550.915 114.606 550.795C114.675 550.723 114.722 550.632 114.741 550.534C114.76 550.435 114.751 550.334 114.715 550.24C114.42 549.755 113.966 549.388 113.43 549.2C112.895 549.012 112.311 549.017 111.778 549.212C111.461 549.329 111.171 549.508 110.925 549.74C110.763 549.902 110.695 550.01 110.708 550.024C111.043 549.748 111.423 549.533 111.832 549.388C112.273 549.254 112.744 549.254 113.185 549.388C113.464 549.444 113.728 549.558 113.96 549.721C114.193 549.884 114.39 550.093 114.539 550.335C114.633 550.579 114.43 550.741 114.146 550.741C113.876 550.723 113.609 550.677 113.348 550.606C112.886 550.496 112.434 550.351 111.994 550.173C111.209 549.848 110.776 549.577 110.763 549.604Z" fill="#263238"/>
<path d="M110.979 549.848C110.979 549.848 111.331 549.686 111.602 549.144C111.76 548.83 111.834 548.481 111.818 548.129C111.827 547.902 111.778 547.676 111.676 547.473C111.575 547.269 111.423 547.095 111.236 546.965C111.107 546.917 110.964 546.92 110.837 546.976C110.711 547.032 110.611 547.135 110.56 547.263C110.47 547.458 110.429 547.672 110.438 547.886C110.424 548.231 110.456 548.577 110.533 548.914C110.583 549.228 110.708 549.525 110.898 549.781C110.898 549.781 110.79 549.429 110.709 548.874C110.673 548.55 110.673 548.223 110.709 547.899C110.709 547.561 110.871 547.06 111.182 547.196C111.494 547.331 111.588 547.805 111.629 548.143C111.64 548.461 111.59 548.778 111.48 549.077C111.336 549.348 111.168 549.606 110.979 549.848Z" fill="#263238"/>
<path d="M92.7489 536.652C92.7489 536.652 93.2767 536.923 94.0076 537.519C94.9669 538.294 95.6929 539.32 96.1054 540.482C96.503 541.646 96.5686 542.897 96.2948 544.096C96.0783 545.03 95.7941 545.544 95.8347 545.571C95.9218 545.464 95.9946 545.346 96.0512 545.219C96.2286 544.879 96.3692 544.52 96.4708 544.15C96.7989 542.916 96.7565 541.612 96.349 540.401C95.9196 539.196 95.1483 538.143 94.1294 537.37C93.8206 537.143 93.4896 536.948 93.1414 536.788C93.0192 536.721 92.8864 536.675 92.7489 536.652Z" fill="#263238"/>
<path d="M99.2046 530.468C98.3169 531.585 97.4988 532.755 96.755 533.973C95.9376 535.142 95.1962 536.363 94.5354 537.627C95.4177 536.504 96.2312 535.329 96.9715 534.108C97.7788 532.934 98.5241 531.719 99.2046 530.468Z" fill="#263238"/>
<path d="M99.0963 545.341C99.8051 546.075 100.611 546.708 101.492 547.223C102.326 547.816 103.237 548.294 104.199 548.644C104.199 548.576 103.035 547.926 101.627 547.006C100.22 546.086 99.1369 545.287 99.0963 545.341Z" fill="#263238"/>
<path d="M95.6452 543.162C95.6452 543.162 95.6452 543.46 95.537 543.798C95.4287 544.137 95.4016 544.407 95.537 544.448C95.6723 544.489 95.8076 544.218 95.8618 543.839C95.9159 543.46 95.7129 543.135 95.6452 543.162Z" fill="#263238"/>
<path d="M95.3745 540.713C95.3745 540.713 95.3745 540.97 95.3745 541.281C95.3745 541.592 95.5369 541.809 95.6046 541.795C95.6723 541.782 95.6858 541.525 95.6046 541.227C95.5234 540.929 95.4422 540.713 95.3745 540.713Z" fill="#263238"/>
<path d="M93.9805 538.804C93.9805 538.872 94.197 539.021 94.4 539.278C94.603 539.535 94.6978 539.779 94.7654 539.779C94.8331 539.779 94.8466 539.427 94.5895 539.115C94.3323 538.804 94.0075 538.736 93.9805 538.804Z" fill="#263238"/>
<path d="M92.8842 537.627C92.8842 537.627 92.8842 537.816 92.9789 537.965C93.0736 538.114 93.2225 538.195 93.2766 538.155C93.3308 538.114 93.2766 537.965 93.1819 537.816C93.0872 537.668 92.9383 537.573 92.8842 537.627Z" fill="#263238"/>
<path d="M190.356 333.222C190.356 333.222 207.951 450.494 205.433 456.152C202.916 461.809 120.453 552.447 120.453 552.447L90.0962 532.321C90.0962 532.321 162.07 441.643 161.529 439.518C160.988 437.394 134.258 323.789 134.258 323.789L190.356 333.222Z" fill="#0103AB"/>
<path d="M124.229 322.192L123.16 326.536C120.032 339.363 121.971 352.903 128.574 364.337L176.403 447.328C179.802 453.202 182.276 459.566 183.738 466.194L205.393 562.015H238.727C238.727 564.005 230.106 483.071 225.775 456.192C222.527 435.891 195.391 372.998 182.25 343.278L190.37 333.263L176.213 330.935L124.229 322.192Z" fill="#0103AB"/>
<path d="M183.251 343.021C183.549 343.44 183.794 343.895 183.982 344.374C184.415 345.24 185.011 346.513 185.728 348.096C187.162 351.249 189.044 355.662 190.966 360.588C192.887 365.514 194.471 370.062 195.554 373.337C196.081 374.988 196.501 376.328 196.772 377.262C196.945 377.739 197.063 378.234 197.124 378.737C196.862 378.315 196.657 377.86 196.514 377.384C196.122 376.328 195.635 375.042 195.08 373.527C193.889 370.278 192.224 365.799 190.302 360.872C188.381 355.946 186.58 351.52 185.268 348.313C184.672 346.824 184.158 345.606 183.725 344.51C183.496 344.039 183.336 343.537 183.251 343.021Z" fill="#263238"/>
<path d="M187.176 482.11C187.075 481.806 187.003 481.494 186.959 481.176C186.838 480.486 186.675 479.593 186.486 478.47C186.377 477.874 186.269 477.224 186.147 476.521C186.026 475.817 185.823 475.045 185.633 474.22C185.268 472.582 184.889 470.701 184.28 468.657C183.995 467.629 183.711 466.56 183.4 465.45L182.304 461.999C181.6 459.617 180.612 457.14 179.597 454.501C177.54 449.277 175.036 443.674 172.126 437.854C167.027 428.031 161.412 418.485 155.303 409.256C152.989 405.765 151.108 402.909 149.741 400.865C149.118 399.918 148.631 399.16 148.238 398.578C148.053 398.317 147.89 398.041 147.751 397.752C147.981 397.978 148.185 398.227 148.36 398.497L149.971 400.703C151.324 402.638 153.341 405.453 155.723 408.986C161.959 418.154 167.644 427.685 172.749 437.529C175.672 443.335 178.162 449.006 180.206 454.257C181.14 456.964 182.114 459.414 182.804 461.823L183.86 465.287C184.144 466.424 184.429 467.493 184.699 468.536C185.268 470.593 185.606 472.488 185.944 474.139C186.107 474.969 186.256 475.74 186.391 476.453C186.499 477.17 186.58 477.806 186.675 478.415C186.811 479.539 186.932 480.446 187.027 481.122C187.112 481.445 187.162 481.777 187.176 482.11Z" fill="#263238"/>
<path d="M124.919 547.601C124.452 547.5 123.998 547.346 123.566 547.141C122.33 546.657 121.124 546.101 119.952 545.476C116.102 543.376 112.419 540.982 108.936 538.317C104.875 535.258 101.14 532.47 98.352 530.63C95.564 528.789 93.7639 527.76 93.8181 527.652C94.2915 527.795 94.746 527.995 95.1715 528.248C96.0241 528.654 97.2016 529.33 98.6362 530.21C101.519 531.956 105.281 534.69 109.369 537.748C112.826 540.394 116.442 542.825 120.196 545.03C123.052 546.681 124.96 547.479 124.919 547.601Z" fill="#263238"/>
<path d="M238.605 556.953C238.156 557.006 237.702 557.006 237.252 556.953H233.476L221.065 556.859L208.641 556.926H204.865C204.412 556.949 203.958 556.922 203.512 556.845C203.951 556.714 204.407 556.645 204.865 556.642C205.758 556.574 207.044 556.48 208.641 556.412C211.808 556.25 216.22 556.114 221.079 556.128C225.938 556.141 230.336 556.263 233.517 556.439C235.1 556.52 236.386 556.602 237.279 556.683C237.732 556.71 238.178 556.802 238.605 556.953Z" fill="#263238"/>
<path d="M146.168 202.483C143.237 202.88 140.254 202.41 137.587 201.13C136.267 200.484 135.149 199.49 134.354 198.254C133.56 197.018 133.119 195.588 133.08 194.119C133.08 192.4 133.879 190.708 133.595 189.017C133.31 187.325 132.052 185.971 131.24 184.456C130.275 182.52 130.001 180.313 130.464 178.201C130.927 176.088 132.098 174.198 133.784 172.843C135.557 171.49 137.844 170.786 139.306 169.122C141.065 167.159 141.35 164.317 142.419 161.908C143.213 160.173 144.42 158.658 145.935 157.498C147.45 156.337 149.226 155.565 151.108 155.249C153.192 154.924 155.357 155.154 157.347 154.491C158.99 153.781 160.54 152.872 161.962 151.784C166.671 148.741 172.386 147.667 177.878 148.793C180.285 149.218 182.52 150.322 184.32 151.974C186.256 153.896 188.746 156.034 189.45 158.606C190.275 161.718 189.26 165.616 188.435 168.716C187.609 171.815 185.105 174.657 181.911 175.036" fill="#263238"/>
<path d="M145.505 226.425L170.922 226.777C171.355 223.853 172.275 212.431 172.275 212.431C172.275 212.431 182.926 211.795 184.036 201.306C185.146 190.817 185.606 166.564 185.606 166.564C179.883 163.434 173.428 161.891 166.908 162.093C160.388 162.296 154.041 164.236 148.523 167.714L146.858 168.77L145.505 226.425Z" fill="#FFBE9D"/>
<path d="M173.06 194.471C173.839 194.252 174.648 194.161 175.455 194.2C175.834 194.2 176.132 194.133 176.186 193.93C176.225 193.555 176.165 193.177 176.01 192.833L175.144 189.788C174.303 187.199 173.718 184.533 173.398 181.83C174.501 184.32 175.353 186.913 175.943 189.572C176.227 190.627 176.484 191.629 176.741 192.63C176.927 193.142 176.927 193.702 176.741 194.214C176.673 194.354 176.572 194.477 176.448 194.571C176.323 194.665 176.178 194.728 176.024 194.755C175.809 194.788 175.59 194.788 175.374 194.755C174.592 194.795 173.809 194.699 173.06 194.471Z" fill="#263238"/>
<path d="M172.248 212.282C167.394 211.92 162.757 210.12 158.93 207.112C158.93 207.112 161.461 214.961 172.018 215.002L172.248 212.282Z" fill="#EB996E"/>
<path d="M146.939 179.8C146.723 179.705 139.753 178.568 140.172 186.865C140.592 195.161 148.807 192.021 148.821 191.778C148.834 191.534 146.939 179.8 146.939 179.8Z" fill="#FFBE9D"/>
<path d="M146.168 188.989C146.168 188.989 146.019 189.098 145.789 189.22C145.451 189.382 145.064 189.411 144.706 189.301C144.156 188.985 143.699 188.529 143.38 187.981C143.062 187.432 142.894 186.809 142.893 186.174C142.838 185.461 142.945 184.744 143.204 184.077C143.271 183.817 143.399 183.576 143.578 183.376C143.757 183.176 143.981 183.022 144.232 182.926C144.397 182.876 144.574 182.884 144.734 182.948C144.894 183.012 145.027 183.128 145.112 183.278C145.234 183.508 145.112 183.671 145.234 183.684C145.356 183.698 145.396 183.535 145.315 183.197C145.259 182.994 145.135 182.817 144.963 182.696C144.85 182.612 144.72 182.553 144.583 182.523C144.445 182.493 144.303 182.492 144.165 182.52C143.826 182.6 143.514 182.766 143.26 183.004C143.006 183.241 142.819 183.541 142.717 183.874C142.395 184.61 142.26 185.414 142.324 186.215C142.314 186.955 142.525 187.681 142.93 188.301C143.335 188.921 143.916 189.405 144.598 189.693C144.83 189.756 145.073 189.762 145.308 189.713C145.544 189.663 145.764 189.559 145.951 189.409C146.168 189.192 146.168 189.003 146.168 188.989Z" fill="#EB996E"/>
<path d="M163.64 179.597C163.518 179.448 163.721 179.056 164.263 178.636C164.983 178.125 165.831 177.825 166.712 177.77C167.594 177.701 168.476 177.884 169.257 178.298C169.852 178.636 170.096 179.001 170.001 179.15C169.798 179.502 168.458 179.042 166.807 179.15C165.156 179.259 163.884 179.908 163.64 179.597Z" fill="#263238"/>
<path d="M178.352 179.678C178.271 179.313 179.407 178.771 180.896 178.785C182.385 178.798 183.522 179.326 183.454 179.705C183.386 180.084 182.25 180.192 180.896 180.192C179.543 180.192 178.419 180.071 178.352 179.678Z" fill="#263238"/>
<path d="M144.3 171.314C144.706 173.858 145.103 176.407 145.491 178.961C145.559 180.177 145.977 181.347 146.696 182.331C148.049 183.833 150.512 183.684 152.245 182.696C154.775 181.221 156.169 178.392 157.239 175.658C158.308 172.925 159.255 170.042 161.299 167.958C162.768 169.496 164.686 170.532 166.779 170.916C168.871 171.3 171.032 171.013 172.952 170.096C174.643 169.257 176.051 167.93 177.675 166.956C178.451 166.407 179.343 166.044 180.281 165.893C181.22 165.743 182.18 165.81 183.089 166.09C184.05 166.496 184.916 167.281 185.944 167.227C186.339 167.193 186.718 167.059 187.045 166.836C187.372 166.613 187.636 166.309 187.812 165.954C188.149 165.233 188.267 164.428 188.15 163.64C187.812 160.717 185.444 158.389 182.737 157.09C178.961 155.235 174.616 154.978 170.394 154.965C166.39 154.846 162.387 155.242 158.484 156.142C154.564 157.065 150.999 159.111 148.225 162.03C146.858 163.501 145.842 165.262 145.251 167.181C144.661 169.101 144.511 171.129 144.814 173.114" fill="#263238"/>
<path d="M177.391 162.923C177.945 165.617 179.372 168.052 181.451 169.852C182.388 170.786 183.635 171.345 184.956 171.422C186.017 171.296 186.994 170.783 187.701 169.981C188.408 169.18 188.794 168.146 188.787 167.078C188.692 164.924 187.765 162.891 186.202 161.407C184.866 159.826 182.969 158.826 180.91 158.619C179.889 158.57 178.887 158.908 178.104 159.565C177.321 160.223 176.815 161.151 176.687 162.165" fill="#263238"/>
<path d="M165.115 183.522C165.115 183.881 165.258 184.225 165.512 184.479C165.766 184.733 166.11 184.875 166.469 184.875C166.639 184.886 166.81 184.863 166.971 184.806C167.132 184.75 167.281 184.662 167.407 184.547C167.533 184.432 167.635 184.292 167.706 184.137C167.778 183.982 167.817 183.814 167.822 183.644C167.822 183.285 167.68 182.94 167.426 182.687C167.172 182.433 166.828 182.29 166.469 182.29C166.298 182.277 166.126 182.299 165.964 182.355C165.802 182.411 165.653 182.499 165.527 182.614C165.4 182.73 165.298 182.87 165.228 183.026C165.157 183.182 165.119 183.351 165.115 183.522Z" fill="#263238"/>
<path d="M162.977 182.06C163.153 182.236 164.141 181.465 165.576 181.438C167.01 181.41 168.066 182.114 168.215 181.925C168.364 181.735 168.12 181.546 167.646 181.221C167.026 180.808 166.293 180.596 165.547 180.613C164.802 180.629 164.079 180.875 163.478 181.316C163.045 181.681 162.896 182.06 162.977 182.06Z" fill="#263238"/>
<path d="M179.813 183.481C179.813 183.84 179.956 184.184 180.21 184.438C180.464 184.692 180.808 184.835 181.167 184.835C181.338 184.848 181.509 184.826 181.671 184.77C181.833 184.714 181.982 184.626 182.109 184.511C182.236 184.395 182.337 184.255 182.408 184.099C182.479 183.943 182.517 183.774 182.52 183.603C182.52 183.244 182.378 182.9 182.124 182.646C181.87 182.392 181.526 182.25 181.167 182.25C180.828 182.248 180.501 182.374 180.25 182.602C180 182.83 179.844 183.144 179.813 183.481Z" fill="#263238"/>
<path d="M177.919 182.29C178.081 182.466 179.083 181.695 180.517 181.668C181.952 181.641 183.008 182.344 183.224 182.168C183.441 181.993 183.129 181.776 182.656 181.451C182.033 181.035 181.296 180.822 180.547 180.842C179.799 180.861 179.074 181.112 178.474 181.559C177.986 181.898 177.838 182.223 177.919 182.29Z" fill="#263238"/>
<path d="M172.722 198.721C172.722 198.815 172.37 198.978 171.72 198.937C170.874 198.875 170.083 198.498 169.5 197.881C168.912 197.267 168.57 196.458 168.54 195.608C168.54 194.972 168.715 194.606 168.797 194.62C168.878 194.633 168.797 196.176 170.001 197.394C171.206 198.612 172.735 198.531 172.722 198.721Z" fill="#263238"/>
<path d="M177.513 252.938L198.639 245.873C198.639 245.873 213.337 280.669 217.127 281.062C238.091 282.97 260.531 276.027 268.394 273.28C269.192 272.373 270.113 271.304 271.101 269.977C271.966 268.844 272.635 267.571 273.077 266.215C273.682 264.545 274.06 262.802 274.2 261.031C274.156 260.687 274.222 260.337 274.388 260.032C274.554 259.727 274.812 259.482 275.125 259.332C275.438 259.182 275.791 259.135 276.133 259.197C276.475 259.259 276.788 259.428 277.029 259.678C277.935 260.855 278.165 265.349 276.095 270.18C274.024 275.012 281.346 271.168 284.039 269.815C286.733 268.462 295.273 264.672 296.342 265.173C297.912 265.904 297.424 267.717 294.704 269.003C291.984 270.289 284.08 274.741 284.865 276.122C285.65 277.502 299.265 270.424 299.265 270.424C299.265 270.424 301.972 268.435 302.892 270.005C304.625 272.847 289.575 279.302 288.14 279.884C287.125 280.29 287.924 281.833 288.979 281.333C290.035 280.832 302.405 273.956 304.191 276.839C305.545 279.045 291.875 282.253 290.116 285.109C288.357 287.964 300.24 281.617 301.471 283.755C301.918 284.567 302.148 285.23 294.785 287.815C289.397 289.507 283.921 290.908 278.382 292.011C278.382 292.011 202.591 325.927 189.057 293.202C175.158 260.016 177.513 252.938 177.513 252.938Z" fill="#EB996E"/>
<path d="M205.718 257.336C197.259 237.536 186.188 229.781 180.341 226.912C178.293 225.918 176.065 225.347 173.791 225.234L173.087 221.823L145.072 219.306L144.381 223.637L140.321 223.407C140.321 223.407 116.176 225.829 116.122 253.804C116.122 266.892 123.173 279.627 125.664 285.866C127.22 298.913 121.603 322.584 121.779 328.35L190.438 333.222L193.253 290.333L192.617 286.272L215.219 279.343L205.718 257.336Z" fill="#EBEBEB"/>
<path d="M357.732 162.652C347.822 150.378 334.496 141.318 319.437 136.616C304.379 131.914 288.265 131.782 273.131 136.236C257.998 140.69 244.524 149.53 234.414 161.639C224.303 173.749 218.01 188.584 216.328 204.269C214.972 217.022 216.711 229.913 221.4 241.849C226.089 253.785 233.588 264.414 243.261 272.833L173.439 354.782L183.454 363.322L253.831 280.683C263.937 286.923 275.315 290.812 287.125 292.065C289.993 292.373 292.875 292.526 295.76 292.525C310.799 292.475 325.519 288.179 338.225 280.13C350.93 272.082 361.104 260.609 367.575 247.033C374.046 233.457 376.552 218.329 374.804 203.391C373.055 188.453 367.123 174.313 357.692 162.598L357.732 162.652ZM361.874 219.82C360.234 235.138 353.335 249.413 342.35 260.214C331.366 271.015 316.976 277.673 301.633 279.054C286.29 280.435 270.943 276.453 258.206 267.787C245.47 259.121 236.132 246.307 231.784 231.529C227.436 216.75 228.347 200.921 234.361 186.738C240.375 172.556 251.12 160.897 264.767 153.749C278.413 146.601 294.115 144.406 309.199 147.537C324.282 150.668 337.814 158.932 347.487 170.922C352.999 177.716 357.108 185.537 359.578 193.93C362.047 202.323 362.828 211.123 361.874 219.82Z" fill="#263238"/>
<path d="M352.116 157.036C342.209 144.755 328.882 135.689 313.822 130.983C298.762 126.277 282.645 126.143 267.508 130.598C252.372 135.053 238.897 143.896 228.787 156.01C218.677 168.124 212.387 182.964 210.712 198.653C209.353 211.405 211.091 224.297 215.78 236.234C220.469 248.17 227.97 258.799 237.645 267.216L166.97 349.774L177.675 358.341L248.255 275.012C258.363 281.246 269.74 285.136 281.549 286.394C284.418 286.696 287.3 286.849 290.184 286.854C305.224 286.804 319.943 282.508 332.649 274.46C345.354 266.411 355.528 254.939 361.999 241.362C368.471 227.786 370.976 212.658 369.228 197.72C367.479 182.783 361.547 168.642 352.116 156.927V157.036ZM356.257 214.204C354.62 229.529 347.719 243.812 336.731 254.619C325.742 265.426 311.347 272.089 295.997 273.472C280.646 274.855 265.292 270.872 252.549 262.203C239.806 253.534 230.464 240.714 226.113 225.928C221.763 211.143 222.675 195.306 228.692 181.117C234.71 166.928 245.461 155.265 259.114 148.114C272.768 140.964 288.478 138.769 303.568 141.904C318.658 145.038 332.194 153.309 341.87 165.305C347.38 172.101 351.489 179.921 353.958 188.314C356.427 196.707 357.209 205.507 356.257 214.204Z" fill="#455A64"/>
<path d="M253.831 250.339C253.631 250.169 253.454 249.973 253.303 249.757C252.979 249.351 252.478 248.77 251.95 247.971C250.304 245.741 248.817 243.398 247.497 240.96C243.088 232.906 240.409 224.019 239.633 214.869C238.857 205.719 240 196.508 242.99 187.826C243.875 185.205 244.942 182.65 246.185 180.179C246.604 179.286 246.997 178.636 247.254 178.189C247.358 177.948 247.5 177.724 247.673 177.526C247.595 177.778 247.496 178.023 247.376 178.257C247.172 178.731 246.821 179.394 246.428 180.287C245.292 182.796 244.298 185.367 243.451 187.988C240.619 196.637 239.557 205.768 240.329 214.836C241.101 223.905 243.691 232.725 247.944 240.771C249.213 243.21 250.623 245.574 252.167 247.849C252.694 248.675 253.155 249.203 253.439 249.703C253.591 249.902 253.722 250.115 253.831 250.339Z" fill="#263238"/>
<path d="M257.147 168.431C257.269 168.594 256.457 169.352 255.645 170.421C254.833 171.49 254.291 172.451 254.102 172.383C253.912 172.316 254.183 171.138 255.076 169.988C255.97 168.837 257.052 168.269 257.147 168.431Z" fill="#263238"/>
<path d="M186.987 242.381C187.204 242.988 187.367 243.613 187.474 244.249C187.744 245.454 188.096 247.213 188.516 249.406C189.328 253.763 190.316 259.827 191.223 266.553C192.129 273.28 192.576 279.397 192.833 283.823C192.969 286.042 193.05 287.883 193.077 289.074C193.141 289.717 193.141 290.366 193.077 291.009C192.939 290.382 192.857 289.743 192.833 289.101C192.711 287.748 192.549 285.975 192.36 283.863C191.967 279.451 191.372 273.347 190.546 266.634C189.72 259.921 188.8 253.872 188.11 249.487C187.785 247.402 187.514 245.657 187.298 244.29C187.126 243.667 187.022 243.027 186.987 242.381Z" fill="#263238"/>
<path d="M224.327 308.861C224.327 308.861 148.536 342.845 135.002 310.119C121.116 276.785 123.471 269.707 123.471 269.707L144.598 262.642C144.598 262.642 159.309 297.438 163.085 297.83C184.063 299.752 206.503 292.796 214.366 290.048C215.164 289.155 216.071 288.072 217.073 286.76C218.074 285.447 218.859 284.053 219.779 282.875C221.783 280.371 223.366 279.952 224.246 278.964C226.33 276.595 228.306 278.328 227.332 279.6C226.357 280.872 224.178 282.172 222.107 287.017C220.037 291.862 227.413 289.466 230.336 288.708C233.557 287.856 239.607 285.501 239.607 285.501C239.756 286.922 238.145 289.778 235.425 291.063C233.951 291.781 232.437 292.414 230.891 292.958C230.891 292.958 236.481 292.268 236.629 293.554C236.778 294.839 234.978 304.259 229.023 307.088L224.327 308.861Z" fill="#FFBE9D"/>
<path d="M139.631 232.326L153.246 273.429L123.471 285.203C123.471 285.203 107.934 244.831 127.613 234.951L139.631 232.326Z" fill="#EBEBEB"/>
<path d="M155.222 271.832C155.222 271.832 155.06 271.723 154.816 271.453C154.479 271.029 154.18 270.576 153.923 270.099C153.094 268.341 152.376 266.533 151.771 264.686C150.106 260.084 147.846 253.696 145.396 246.645L141.972 236.684C140.917 233.625 140.091 230.783 138.535 228.956C137.955 228.214 137.216 227.611 136.373 227.192C135.53 226.773 134.604 226.548 133.662 226.533C132.967 226.578 132.285 226.743 131.646 227.02C131.646 227.02 131.781 226.871 132.106 226.695C132.584 226.444 133.11 226.297 133.649 226.262C134.651 226.217 135.649 226.408 136.563 226.819C137.478 227.231 138.283 227.851 138.914 228.631C140.619 230.539 141.499 233.449 142.581 236.467C143.664 239.485 144.828 242.882 146.06 246.415C148.523 253.466 150.702 259.949 152.245 264.523C153.03 266.851 153.598 268.759 154.166 269.937C154.735 271.114 155.276 271.791 155.222 271.832Z" fill="#263238"/>
<path d="M154.586 272.603C154.244 272.885 153.866 273.122 153.463 273.307C152.718 273.726 151.622 274.295 150.255 274.971C147.548 276.325 143.691 278.084 139.428 279.83C135.165 281.576 131.118 282.97 128.208 283.89C126.76 284.351 125.501 284.702 124.743 284.919C124.308 285.076 123.852 285.171 123.39 285.203C124.882 284.508 126.419 283.916 127.992 283.43C130.861 282.388 134.759 280.926 139.103 279.194C143.447 277.462 147.223 275.77 150.039 274.525C151.513 273.791 153.032 273.149 154.586 272.603Z" fill="#263238"/>
<path d="M128.344 283.687C127.113 281.843 126.292 279.758 125.934 277.57C126.646 278.43 127.167 279.431 127.464 280.507C127.987 281.49 128.287 282.575 128.344 283.687Z" fill="#263238"/>
<path d="M134.637 281.265C134.461 281.359 133.649 280.168 133.053 278.558C132.583 277.582 132.395 276.495 132.512 275.418C133.065 276.318 133.472 277.3 133.716 278.328C134.167 279.256 134.477 280.245 134.637 281.265Z" fill="#263238"/>
<path d="M141.228 278.409C140.406 277.647 139.819 276.665 139.536 275.581C139.042 274.569 138.845 273.438 138.968 272.319C139.515 273.258 139.93 274.27 140.199 275.323C140.681 276.3 141.027 277.339 141.228 278.409Z" fill="#263238"/>
<path d="M148.279 275.567C147.627 274.619 147.167 273.552 146.926 272.427C146.476 271.37 146.242 270.233 146.235 269.084C146.903 270.019 147.364 271.084 147.589 272.21C148.051 273.269 148.286 274.412 148.279 275.567Z" fill="#263238"/>
<path d="M215.76 278.91C212.023 280.489 208.195 281.845 204.297 282.97C200.47 284.31 196.571 285.431 192.617 286.326C196.356 284.753 200.184 283.397 204.08 282.266C207.905 280.922 211.805 279.801 215.76 278.91Z" fill="#263238"/>
<path d="M197.597 283.687C197.408 283.769 196.812 282.767 196.244 281.468C195.675 280.168 195.391 279.045 195.567 278.964C195.743 278.883 196.339 279.884 196.921 281.197C197.503 282.51 197.8 283.566 197.597 283.687Z" fill="#263238"/>
<path d="M203.444 282.375C203.268 282.375 202.632 281.265 202.199 279.668C201.827 278.731 201.724 277.709 201.901 276.717C202.104 276.717 202.456 277.949 202.875 279.424C203.254 280.361 203.447 281.363 203.444 282.375Z" fill="#263238"/>
<path d="M209.778 280.372C208.932 278.561 208.528 276.576 208.6 274.579C209.122 275.439 209.442 276.406 209.534 277.408C209.843 278.364 209.926 279.378 209.778 280.372Z" fill="#263238"/>
<path d="M147.819 223.258C147.616 223.258 147.521 222.5 147.575 221.58C147.629 220.659 147.86 219.942 148.049 219.956C148.239 219.969 148.347 220.727 148.279 221.634C148.211 222.54 148.008 223.271 147.819 223.258Z" fill="#263238"/>
<path d="M153.99 223.623C153.787 223.623 153.611 222.892 153.571 221.986C153.53 221.079 153.666 220.321 153.855 220.321C154.045 220.321 154.234 221.038 154.275 221.959C154.315 222.879 154.18 223.61 153.99 223.623Z" fill="#263238"/>
<path d="M158.754 224.449C158.565 224.449 158.416 223.677 158.416 222.73C158.416 221.783 158.592 221.025 158.782 221.025C158.971 221.025 159.133 221.796 159.12 222.73C159.106 223.664 158.957 224.449 158.754 224.449Z" fill="#263238"/>
<path d="M165.197 225.153C165.021 225.153 164.628 224.327 164.601 223.163C164.574 221.999 164.899 221.106 165.075 221.146C165.251 221.187 165.264 222.067 165.305 223.136C165.345 224.205 165.4 225.098 165.197 225.153Z" fill="#263238"/>
<path d="M170.529 225.153C170.326 225.153 170.069 224.3 169.934 223.19C169.798 222.08 169.852 221.16 170.042 221.147C170.231 221.133 170.502 221.999 170.637 223.109C170.773 224.219 170.705 225.125 170.529 225.153Z" fill="#263238"/>
</svg>
