<svg width="351" height="177" viewBox="0 0 351 177" fill="none" xmlns="http://www.w3.org/2000/svg">
<path d="M22.7586 49.76V63.392H44.7426V76.064H22.7586V90.848H47.6226V104H6.34263V36.608H47.6226V49.76H22.7586ZM88.1361 90.08V104H79.7841C73.8321 104 69.1921 102.56 65.8641 99.68C62.5361 96.736 60.8721 91.968 60.8721 85.376V64.064H54.3441V50.432H60.8721V37.376H77.2881V50.432H88.0401V64.064H77.2881V85.568C77.2881 87.168 77.6721 88.32 78.4401 89.024C79.2081 89.728 80.4881 90.08 82.2801 90.08H88.1361ZM147.776 76.352C147.776 77.888 147.68 79.488 147.488 81.152H110.336C110.592 84.48 111.648 87.04 113.504 88.832C115.424 90.56 117.76 91.424 120.512 91.424C124.608 91.424 127.456 89.696 129.056 86.24H146.528C145.632 89.76 144 92.928 141.632 95.744C139.328 98.56 136.416 100.768 132.896 102.368C129.376 103.968 125.44 104.768 121.088 104.768C115.84 104.768 111.168 103.648 107.072 101.408C102.976 99.168 99.7761 95.968 97.4721 91.808C95.1681 87.648 94.0161 82.784 94.0161 77.216C94.0161 71.648 95.1361 66.784 97.3761 62.624C99.6801 58.464 102.88 55.264 106.976 53.024C111.072 50.784 115.776 49.664 121.088 49.664C126.272 49.664 130.88 50.752 134.912 52.928C138.944 55.104 142.08 58.208 144.32 62.24C146.624 66.272 147.776 70.976 147.776 76.352ZM130.976 72.032C130.976 69.216 130.016 66.976 128.096 65.312C126.176 63.648 123.776 62.816 120.896 62.816C118.144 62.816 115.808 63.616 113.888 65.216C112.032 66.816 110.88 69.088 110.432 72.032H130.976ZM153.172 77.216C153.172 71.648 154.292 66.784 156.532 62.624C158.836 58.464 162.004 55.264 166.036 53.024C170.132 50.784 174.804 49.664 180.052 49.664C186.772 49.664 192.372 51.424 196.852 54.944C201.396 58.464 204.372 63.424 205.78 69.824H188.308C186.836 65.728 183.988 63.68 179.764 63.68C176.756 63.68 174.356 64.864 172.564 67.232C170.772 69.536 169.876 72.864 169.876 77.216C169.876 81.568 170.772 84.928 172.564 87.296C174.356 89.6 176.756 90.752 179.764 90.752C183.988 90.752 186.836 88.704 188.308 84.608H205.78C204.372 90.88 201.396 95.808 196.852 99.392C192.308 102.976 186.708 104.768 180.052 104.768C174.804 104.768 170.132 103.648 166.036 101.408C162.004 99.168 158.836 95.968 156.532 91.808C154.292 87.648 153.172 82.784 153.172 77.216Z" fill="white"/>
<path d="M180.652 153.112C177.538 153.112 174.764 152.579 172.332 151.512C169.9 150.445 167.98 148.995 166.572 147.16C165.164 145.283 164.375 143.192 164.204 140.888H175.02C175.148 142.125 175.724 143.128 176.748 143.896C177.772 144.664 179.031 145.048 180.524 145.048C181.89 145.048 182.935 144.792 183.66 144.28C184.428 143.725 184.812 143.021 184.812 142.168C184.812 141.144 184.279 140.397 183.212 139.928C182.146 139.416 180.418 138.861 178.028 138.264C175.468 137.667 173.335 137.048 171.628 136.408C169.922 135.725 168.45 134.68 167.212 133.272C165.975 131.821 165.356 129.88 165.356 127.448C165.356 125.4 165.911 123.544 167.02 121.88C168.172 120.173 169.836 118.829 172.012 117.848C174.231 116.867 176.855 116.376 179.884 116.376C184.364 116.376 187.884 117.485 190.444 119.704C193.047 121.923 194.54 124.867 194.924 128.536H184.812C184.642 127.299 184.087 126.317 183.148 125.592C182.252 124.867 181.058 124.504 179.564 124.504C178.284 124.504 177.303 124.76 176.62 125.272C175.938 125.741 175.596 126.403 175.596 127.256C175.596 128.28 176.13 129.048 177.196 129.56C178.306 130.072 180.012 130.584 182.316 131.096C184.962 131.779 187.116 132.461 188.78 133.144C190.444 133.784 191.895 134.851 193.132 136.344C194.412 137.795 195.074 139.757 195.116 142.232C195.116 144.323 194.519 146.2 193.324 147.864C192.172 149.485 190.487 150.765 188.268 151.704C186.092 152.643 183.554 153.112 180.652 153.112ZM221.716 143.32V152.6H216.148C212.18 152.6 209.086 151.64 206.868 149.72C204.649 147.757 203.54 144.579 203.54 140.184V125.976H199.188V116.888H203.54V108.184H214.484V116.888H221.652V125.976H214.484V140.312C214.484 141.379 214.74 142.147 215.252 142.616C215.764 143.085 216.617 143.32 217.812 143.32H221.716ZM263.076 116.888V152.6H252.132V147.736C251.022 149.315 249.508 150.595 247.588 151.576C245.71 152.515 243.62 152.984 241.316 152.984C238.585 152.984 236.174 152.387 234.084 151.192C231.993 149.955 230.372 148.184 229.22 145.88C228.068 143.576 227.492 140.867 227.492 137.752V116.888H238.372V136.28C238.372 138.669 238.99 140.525 240.228 141.848C241.465 143.171 243.129 143.832 245.22 143.832C247.353 143.832 249.038 143.171 250.276 141.848C251.513 140.525 252.132 138.669 252.132 136.28V116.888H263.076ZM268.761 134.68C268.761 131.011 269.443 127.789 270.809 125.016C272.217 122.243 274.115 120.109 276.505 118.616C278.894 117.123 281.561 116.376 284.505 116.376C286.851 116.376 288.985 116.867 290.905 117.848C292.867 118.829 294.403 120.152 295.513 121.816V105.24H306.457V152.6H295.513V147.48C294.489 149.187 293.017 150.552 291.097 151.576C289.219 152.6 287.022 153.112 284.505 153.112C281.561 153.112 278.894 152.365 276.505 150.872C274.115 149.336 272.217 147.181 270.809 144.408C269.443 141.592 268.761 138.349 268.761 134.68ZM295.513 134.744C295.513 132.013 294.745 129.859 293.209 128.28C291.715 126.701 289.881 125.912 287.705 125.912C285.529 125.912 283.673 126.701 282.137 128.28C280.643 129.816 279.897 131.949 279.897 134.68C279.897 137.411 280.643 139.587 282.137 141.208C283.673 142.787 285.529 143.576 287.705 143.576C289.881 143.576 291.715 142.787 293.209 141.208C294.745 139.629 295.513 137.475 295.513 134.744ZM350.854 116.888L328.454 169.56H316.678L324.87 151.384L310.342 116.888H322.566L330.822 139.224L339.014 116.888H350.854Z" fill="#F52917"/>
</svg>
