<?xml version="1.0" standalone="no"?><svg xmlns="http://www.w3.org/2000/svg" viewBox="0 0 1440 320"><path fill="#0103AB" fill-opacity="1" d="M0,64L34.3,90.7C68.6,117,137,171,206,197.3C274.3,224,343,224,411,218.7C480,213,549,203,617,176C685.7,149,754,107,823,117.3C891.4,128,960,192,1029,192C1097.1,192,1166,128,1234,96C1302.9,64,1371,64,1406,64L1440,64L1440,320L1405.7,320C1371.4,320,1303,320,1234,320C1165.7,320,1097,320,1029,320C960,320,891,320,823,320C754.3,320,686,320,617,320C548.6,320,480,320,411,320C342.9,320,274,320,206,320C137.1,320,69,320,34,320L0,320Z"></path></svg>